<svg width="24" height="24" viewBox="0 0 24 24" fill="none" xmlns="http://www.w3.org/2000/svg">
    <path
        d="M15.1266 6.0188L19.8281 10.9407C20.1094 11.2125 20.25 11.5829 20.25 11.9907C20.25 12.3985 20.1094 12.7641 19.8281 13.0407L15.1266 17.9813C14.5688 18.5672 13.6594 18.5672 13.1016 17.9813C12.5437 17.3954 12.5437 16.4485 13.1016 15.8625L15.3609 13.5H5.18906C4.39219 13.5 3.75 12.8297 3.75 12C3.75 11.1704 4.39219 10.5 5.18437 10.5H15.3563L13.0969 8.13755C12.5391 7.55161 12.5391 6.60474 13.0969 6.0188C13.6594 5.43286 14.5641 5.43286 15.1266 6.0188Z"
        fill="white" />
</svg>
