<svg width="80" height="80" viewBox="0 0 80 80" fill="none" xmlns="http://www.w3.org/2000/svg">
    <g clip-path="url(#clip0_1_2921)">
        <path
            d="M76.875 40C76.875 48.1875 74.1875 55.75 69.6875 61.875C62.9375 70.9375 52.1875 76.875 40 76.875C32.4375 76.875 25.375 74.5625 19.5625 70.6875C15.9375 68.25 12.75 65.1875 10.1875 61.6875C5.75 55.625 3.125 48.125 3.125 40C3.125 19.625 19.625 3.125 40 3.125C60.375 3.125 76.875 19.625 76.875 40Z"
            fill="#FAFAFA" />
        <path
            d="M39.25 11.5625C48.75 11.5625 56.4375 19.875 56.4375 30.125C56.4375 39.0625 50.5625 46.5625 42.8125 48.3125C41.6875 48.5625 40.5 48.6875 39.25 48.6875C37.75 48.6875 36.3125 48.5 34.9375 48.125C27.5 46 22.0625 38.75 22.0625 30.125C22.0625 19.875 29.6875 11.5625 39.25 11.5625Z"
            fill="#E6E6E6" />
        <path
            d="M31.6875 31.125C31.6875 21.5 38.875 13.6875 47.8125 13.625C45.4375 12.3125 42.75 11.5625 39.9375 11.5625C30.4375 11.5625 22.75 19.875 22.75 30.125C22.75 39.0625 28.625 46.5625 36.4375 48.3125C37.5625 48.5625 38.75 48.6875 39.9375 48.6875C41.3125 48.6875 42.6875 48.5 43.9375 48.1875C36.9375 46.25 31.6875 39.375 31.6875 31.125Z"
            fill="#F2F2F2" />
        <path
            d="M69.6875 61.875C62.9375 70.9375 52.1875 76.875 40 76.875C32.4375 76.875 25.375 74.5625 19.5625 70.6875C15.9375 68.25 12.75 65.1875 10.1875 61.6875C13.4375 55.875 22.0625 49.0625 34.8125 48.625L38.4375 48.6875L42.9375 48.8125C55.9375 49.1875 65.9375 56.125 69.6875 61.875Z"
            fill="#05ABF4" />
        <path
            d="M38.4375 48.75C27.8125 51.5625 21.3125 63.875 19.5625 70.6875C15.9375 68.25 12.75 65.1875 10.1875 61.6875C13.4375 55.875 22.0625 49.0625 34.8125 48.625L38.4375 48.75Z"
            fill="#64CDFC" />
        <path d="M43.125 48.625C56.125 49 66.0625 56 69.6875 61.8125" stroke="#08263F"
            stroke-width="2" stroke-miterlimit="10" stroke-linecap="round"
            stroke-linejoin="round" />
        <path d="M10.3125 61.875C12.6875 58.0625 17.75 53.75 24.5625 51.125" stroke="#08263F"
            stroke-width="2" stroke-miterlimit="10" stroke-linecap="round"
            stroke-linejoin="round" />
        <path
            d="M34.9375 48.0625C27.5 46 22.0625 38.75 22.0625 30.125C22.0625 19.875 29.75 11.5625 39.25 11.5625C48.75 11.5625 56.4375 19.875 56.4375 30.125C56.4375 39.0625 50.5625 46.5625 42.8125 48.3125C41.6875 48.5625 40.5 48.6875 39.25 48.6875C37.75 48.625 36.3125 48.4375 34.9375 48.0625Z"
            stroke="#08263F" stroke-width="2" stroke-miterlimit="10" stroke-linecap="round"
            stroke-linejoin="round" />
        <path
            d="M76.875 40C76.875 48.1875 74.1875 55.75 69.6875 61.875C62.9375 70.9375 52.1875 76.875 40 76.875C32.4375 76.875 25.375 74.5625 19.5625 70.6875C15.9375 68.25 12.75 65.1875 10.1875 61.6875C5.75 55.625 3.125 48.125 3.125 40C3.125 19.625 19.625 3.125 40 3.125C60.375 3.125 76.875 19.625 76.875 40Z"
            stroke="#08263F" stroke-width="2" stroke-miterlimit="10" stroke-linecap="round"
            stroke-linejoin="round" />
    </g>
    <defs>
        <clipPath id="clip0_1_2921">
            <rect width="80" height="80" fill="white" />
        </clipPath>
    </defs>
</svg>
