<svg width="134" height="80" viewBox="0 0 134 80" fill="none" xmlns="http://www.w3.org/2000/svg">
    <path
        d="M27.7227 28.8105L28.0973 67.2665C28.5969 73.8839 45.9561 79.003 67.4366 79.003C88.7922 79.003 106.401 73.6342 106.401 67.0168V28.8105H27.7227Z"
        fill="#415E6D" />
    <path d="M27.7227 43.1661L67.9361 56.5258L106.401 43.7904V31.3047H27.7227V43.1661Z"
        fill="#2D4552" />
    <path
        d="M67.4364 80.0005C47.3297 80.0005 26.4736 75.1311 26.4736 66.8905V28.8091C26.4736 28.06 26.9732 27.5605 27.7225 27.5605H106.401C107.15 27.5605 107.65 28.06 107.65 28.8091V66.8905C107.65 73.2582 93.5377 80.0005 67.4364 80.0005ZM28.9714 30.0577V66.8905C28.9714 71.8848 45.4564 77.5033 67.4364 77.5033C89.6662 77.5033 105.152 71.8848 105.152 66.8905V30.0577H28.9714Z"
        fill="#233E49" />
    <path d="M67.9369 45.2938L1.74707 23.319L66.813 1.71875L133.128 23.6936L67.9369 45.2938Z"
        fill="#415E6D" />
    <path
        d="M67.5618 46.2907C67.4369 46.2907 67.312 46.2907 67.1871 46.1659L0.997254 24.191C0.497707 24.0662 0.123047 23.5668 0.123047 22.9425C0.123047 22.443 0.497707 21.9436 0.997254 21.6939L66.0631 0.0936427C66.3129 -0.0312142 66.5627 -0.0312142 66.8125 0.0936427L133.002 22.0685C133.502 22.1933 133.877 22.6928 133.877 23.317C133.877 23.9413 133.502 24.3159 133.002 24.5656L68.0613 46.1659C67.9364 46.2907 67.8116 46.2907 67.5618 46.2907ZM5.49317 23.0673L67.6867 43.7936L128.756 23.4419L66.5627 2.71564L5.49317 23.0673Z"
        fill="#233E49" />
    <path
        d="M15.2342 53.784C14.4849 53.784 13.9854 53.2846 13.9854 52.5354V28.3132C13.9854 27.6889 14.4849 27.1895 15.1093 27.0646L62.4413 22.4449C63.0658 22.32 63.6902 22.8195 63.8151 23.5686C63.94 24.1929 63.4404 24.8172 62.6911 24.942L16.4831 29.5617V52.5354C16.4831 53.2846 15.9835 53.784 15.2342 53.784Z"
        fill="#7C4119" />
    <path
        d="M11.4871 66.2684C10.7378 66.2684 10.2383 65.7689 10.2383 65.0198V56.2798C10.2383 55.5307 10.7378 55.0312 11.4871 55.0312C12.2365 55.0312 12.736 55.5307 12.736 56.2798V65.0198C12.736 65.7689 12.2365 66.2684 11.4871 66.2684Z"
        fill="#7C4119" />
    <path
        d="M15.2342 71.2625C14.4849 71.2625 13.9854 70.7631 13.9854 70.0139V61.274C13.9854 60.5248 14.4849 60.0254 15.2342 60.0254C15.9835 60.0254 16.4831 60.5248 16.4831 61.274V70.0139C16.4831 70.7631 15.9835 71.2625 15.2342 71.2625Z"
        fill="#7C4119" />
    <path
        d="M18.9813 68.7625C18.232 68.7625 17.7324 68.2631 17.7324 67.5139V58.774C17.7324 58.0248 18.232 57.5254 18.9813 57.5254C19.7306 57.5254 20.2302 58.0248 20.2302 58.774V67.5139C20.2302 68.2631 19.7306 68.7625 18.9813 68.7625Z"
        fill="#7C4119" />
    <path
        d="M15.2339 60.0227C17.3031 60.0227 18.9805 58.3457 18.9805 56.277C18.9805 54.2083 17.3031 52.5312 15.2339 52.5312C13.1647 52.5312 11.4873 54.2083 11.4873 56.277C11.4873 58.3457 13.1647 60.0227 15.2339 60.0227Z"
        fill="#FBD000" />
    <path
        d="M15.2346 62.5228C11.7377 62.5228 8.99023 59.776 8.99023 56.28C8.99023 52.784 11.7377 50.0371 15.2346 50.0371C18.7314 50.0371 21.4789 52.784 21.4789 56.28C21.4789 59.776 18.7314 62.5228 15.2346 62.5228ZM15.2346 52.784C13.2364 52.784 11.7377 54.4071 11.7377 56.28C11.7377 58.1528 13.3613 59.776 15.2346 59.776C17.2327 59.776 18.7314 58.1528 18.7314 56.28C18.7314 54.4071 17.2327 52.784 15.2346 52.784Z"
        fill="#7C4119" />
    <path opacity="0.5"
        d="M113.645 23.317C113.52 23.317 113.395 23.317 113.271 23.317L84.9213 14.2025C84.2969 13.9527 83.9222 13.3285 84.172 12.5793C84.4218 11.955 85.0462 11.5805 85.7955 11.8302L114.145 20.9447C114.769 21.1944 115.144 21.8187 114.894 22.5679C114.644 22.9424 114.145 23.317 113.645 23.317Z"
        fill="white" />
    <path opacity="0.5"
        d="M76.3047 11.3305C76.1798 11.3305 76.0549 11.3305 75.93 11.3305L68.3119 8.83331C67.6875 8.5836 67.3128 7.95932 67.5626 7.21017C67.8124 6.58589 68.4368 6.21132 69.1861 6.46103L76.8042 8.83331C77.4287 9.08303 77.8033 9.70731 77.5535 10.4565C77.3038 10.9559 76.8042 11.3305 76.3047 11.3305Z"
        fill="white" />
    <path opacity="0.5"
        d="M101.406 67.5157C100.657 67.5157 100.157 67.0162 100.157 66.2671V50.0357C100.157 49.2865 100.657 48.7871 101.406 48.7871C102.155 48.7871 102.655 49.2865 102.655 50.0357V66.2671C102.655 67.0162 102.155 67.5157 101.406 67.5157Z"
        fill="white" />
</svg>
