<svg width="20" height="20" viewBox="0 0 20 20" fill="none" xmlns="http://www.w3.org/2000/svg">
    <path
        d="M6.30018 2.44298C4.21073 3.37406 2.53959 5.0452 1.60851 7.13465C1.10593 6.53762 0.831327 5.78172 0.833509 5.00131C0.833509 4.11726 1.1847 3.26941 1.80982 2.64429C2.43494 2.01917 3.28279 1.66798 4.16684 1.66798C4.94725 1.6658 5.70314 1.9404 6.30018 2.44298Z"
        fill="#2BAE19" />
    <path
        d="M19.1666 5.00131C19.1688 5.78172 18.8942 6.53762 18.3916 7.13465C17.4605 5.0452 15.7894 3.37406 13.7 2.44298C14.297 1.9404 15.0529 1.6658 15.8333 1.66798C16.7173 1.66798 17.5652 2.01917 18.1903 2.64429C18.8154 3.26941 19.1666 4.11726 19.1666 5.00131Z"
        fill="#2BAE19" />
    <path
        d="M10.8334 0.833333V1.70833C10.5584 1.68333 10.2834 1.66667 10.0001 1.66667C9.71675 1.66667 9.44175 1.68333 9.16675 1.70833V0.833333C9.16675 0.61232 9.25455 0.400358 9.41083 0.244078C9.56711 0.0877974 9.77907 0 10.0001 0C10.2211 0 10.4331 0.0877974 10.5893 0.244078C10.7456 0.400358 10.8334 0.61232 10.8334 0.833333Z"
        fill="#2BAE19" />
    <path
        d="M10 3.33398C8.51664 3.33398 7.0666 3.77385 5.83323 4.59796C4.59986 5.42207 3.63856 6.59341 3.07091 7.96386C2.50325 9.3343 2.35472 10.8423 2.64411 12.2972C2.9335 13.752 3.64781 15.0884 4.6967 16.1373C5.7456 17.1862 7.08197 17.9005 8.53683 18.1899C9.99168 18.4793 11.4997 18.3307 12.8701 17.7631C14.2406 17.1954 15.4119 16.2341 16.236 15.0008C17.0601 13.7674 17.5 12.3173 17.5 10.834C17.5 8.84486 16.7098 6.93721 15.3033 5.53068C13.8968 4.12416 11.9891 3.33398 10 3.33398ZM10.8333 10.834C10.8333 11.055 10.7455 11.2669 10.5892 11.4232L8.08917 13.9232C7.932 14.0749 7.7215 14.1589 7.503 14.157C7.28451 14.1551 7.07549 14.0675 6.92099 13.913C6.76648 13.7585 6.67884 13.5495 6.67694 13.331C6.67504 13.1125 6.75904 12.902 6.91084 12.7448L9.16667 10.489V5.83398C9.16667 5.61297 9.25447 5.40101 9.41075 5.24473C9.56703 5.08845 9.77899 5.00065 10 5.00065C10.221 5.00065 10.433 5.08845 10.5893 5.24473C10.7455 5.40101 10.8333 5.61297 10.8333 5.83398V10.834Z"
        fill="#2BAE19" />
</svg>
