<svg width="20" height="20" viewBox="0 0 20 20" fill="none" xmlns="http://www.w3.org/2000/svg">
    <path fill-rule="evenodd" clip-rule="evenodd"
        d="M19.375 9.0625C19.375 4.375 15.175 0.625 10 0.625C4.825 0.625 0.625 4.375 0.625 9.0625C0.625 13.75 4.825 17.5 10 17.5C10.9577 17.4986 11.9106 17.364 12.8313 17.1L16.1125 19.2875C16.1887 19.3371 16.2771 19.3647 16.368 19.3672C16.4589 19.3698 16.5487 19.3472 16.6275 19.3019C16.7064 19.2567 16.7712 19.1905 16.8149 19.1108C16.8586 19.0311 16.8794 18.9408 16.875 18.85L16.6313 15C17.4805 14.259 18.1638 13.3471 18.6366 12.324C19.1094 11.3008 19.361 10.1895 19.375 9.0625ZM5.625 8.75C5.625 8.05969 6.18469 7.5 6.875 7.5C7.56531 7.5 8.125 8.05969 8.125 8.75C8.125 9.44031 7.56531 10 6.875 10C6.18469 10 5.625 9.44031 5.625 8.75ZM8.75 8.75C8.75 8.05969 9.30969 7.5 10 7.5C10.6903 7.5 11.25 8.05969 11.25 8.75C11.25 9.44031 10.6903 10 10 10C9.30969 10 8.75 9.44031 8.75 8.75ZM13.125 10C13.8153 10 14.375 9.44031 14.375 8.75C14.375 8.05969 13.8153 7.5 13.125 7.5C12.4347 7.5 11.875 8.05969 11.875 8.75C11.875 9.44031 12.4347 10 13.125 10Z"
        fill="#145C99" />
</svg>
