<svg width="279" height="203" viewBox="0 0 279 203" fill="none" xmlns="http://www.w3.org/2000/svg">
    <path
        d="M268.127 12.5197C268.127 11.9441 267.554 11.3685 266.696 11.2246L259.828 10.0733C259.113 9.92941 258.254 9.20989 258.111 8.34646L256.967 1.43904C256.823 0.719522 256.251 0 255.679 0C255.106 0 254.534 0.575618 254.391 1.43904L253.246 8.34646C253.103 9.06598 252.388 9.92941 251.53 10.0733L244.662 11.2246C243.946 11.3685 243.231 11.9441 243.231 12.5197C243.231 13.0953 243.803 13.6709 244.662 13.8148L251.386 14.6783C252.102 14.8222 252.96 15.5417 253.103 16.2612L254.391 23.4564C254.534 24.1759 255.106 24.8955 255.679 24.8955C256.251 24.8955 256.823 24.3199 256.967 23.4564L258.254 16.1173C258.397 15.3978 259.113 14.6783 259.971 14.5344L266.696 13.6709C267.554 13.8148 268.127 13.0953 268.127 12.5197Z"
        fill="#FFF5C2" />
    <path
        d="M243.231 153.595C243.231 153.019 242.659 152.443 241.8 152.299L234.933 151.148C234.217 151.004 233.359 150.285 233.216 149.421L232.071 142.514C231.928 141.794 231.356 141.075 230.783 141.075C230.211 141.075 229.639 141.65 229.496 142.514L228.351 149.421C228.208 150.141 227.493 151.004 226.634 151.148L219.766 152.299C219.051 152.443 218.336 153.019 218.336 153.595C218.336 154.17 218.908 154.746 219.766 154.89L226.491 155.753C227.206 155.897 228.065 156.617 228.208 157.336L229.496 164.531C229.639 165.251 230.211 165.97 230.783 165.97C231.356 165.97 231.928 165.395 232.071 164.531L233.359 157.192C233.502 156.473 234.217 155.753 235.076 155.609L241.8 154.746C242.659 154.89 243.231 154.17 243.231 153.595Z"
        fill="#FFF5C2" />
    <path
        d="M39.9179 146.332C39.9179 145.757 39.3456 145.181 38.4872 145.037L31.6194 143.886C30.9041 143.742 30.0456 143.022 29.9025 142.159L28.7579 135.252C28.6148 134.532 28.0425 133.812 27.4702 133.812C26.8979 133.812 26.3256 134.388 26.1825 135.252L25.0379 142.159C24.8948 142.878 24.1794 143.742 23.3209 143.886L16.4532 145.037C15.7378 145.181 15.0225 145.757 15.0225 146.332C15.0225 146.908 15.5948 147.483 16.4532 147.627L23.1779 148.491C23.8933 148.635 24.7517 149.354 24.8948 150.074L26.1825 157.269C26.3256 157.988 26.8979 158.708 27.4702 158.708C28.0425 158.708 28.6148 158.132 28.7579 157.269L30.0456 149.93C30.1887 149.21 30.904 148.491 31.7625 148.347L38.4872 147.483C39.3456 147.627 39.9179 146.908 39.9179 146.332Z"
        fill="#FFF5C2" />
    <path
        d="M57.5527 12.5197C57.5527 11.9441 56.9804 11.3685 56.1219 11.2246L49.2542 10.0733C48.5388 9.92941 47.6804 9.20989 47.5373 8.34646L46.3927 1.43904C46.2496 0.719522 45.6773 0 45.105 0C44.5326 0 43.9603 0.575618 43.8173 1.43904L42.6726 8.34646C42.5296 9.06598 41.8142 9.92941 40.9557 10.0733L34.088 11.2246C33.3726 11.3685 32.6572 11.9441 32.6572 12.5197C32.6572 13.0953 33.2295 13.6709 34.088 13.8148L40.8126 14.6783C41.528 14.8222 42.3865 15.5417 42.5296 16.2612L43.8173 23.4564C43.9603 24.1759 44.5326 24.8955 45.105 24.8955C45.6773 24.8955 46.2496 24.3199 46.3927 23.4564L47.6804 16.1173C47.8234 15.3978 48.5388 14.6783 49.3973 14.5344L56.1219 13.6709C56.9804 13.8148 57.5527 13.0953 57.5527 12.5197Z"
        fill="#FFF5C2" />
    <path
        d="M202.776 10.3731C199.923 10.3731 197.589 8.03916 197.589 5.18656C197.589 2.33395 199.923 0 202.776 0C205.629 0 207.963 2.33395 207.963 5.18656C207.963 8.03916 205.629 10.3731 202.776 10.3731ZM202.776 2.46362C201.22 2.46362 200.053 3.76025 200.053 5.18656C200.053 6.74252 201.35 7.9095 202.776 7.9095C204.332 7.9095 205.499 6.61286 205.499 5.18656C205.499 3.63059 204.332 2.46362 202.776 2.46362Z"
        fill="#FFF5C2" />
    <path
        d="M273.313 121.366C270.461 121.366 268.127 119.032 268.127 116.18C268.127 113.327 270.461 110.993 273.313 110.993C276.166 110.993 278.5 113.327 278.5 116.18C278.5 119.032 276.166 121.366 273.313 121.366ZM273.313 113.457C271.757 113.457 270.59 114.753 270.59 116.18C270.59 117.736 271.887 118.903 273.313 118.903C274.869 118.903 276.036 117.606 276.036 116.18C276.036 114.624 274.869 113.457 273.313 113.457Z"
        fill="#FFF5C2" />
    <path
        d="M5.6868 59.1268C2.83419 59.1268 0.500244 56.7928 0.500244 53.9402C0.500244 51.0876 2.83419 48.7537 5.6868 48.7537C8.53941 48.7537 10.8734 51.0876 10.8734 53.9402C10.8734 56.7928 8.53941 59.1268 5.6868 59.1268ZM5.6868 51.2173C4.13083 51.2173 2.96386 52.5139 2.96386 53.9402C2.96386 55.4962 4.2605 56.6632 5.6868 56.6632C7.24277 56.6632 8.40974 55.3665 8.40974 53.9402C8.40974 52.3843 7.24277 51.2173 5.6868 51.2173Z"
        fill="#FFF5C2" />
    <rect x="225.737" y="34.271" width="5.18656" height="20.7462" rx="2.59328"
        transform="rotate(54.0541 225.737 34.271)" fill="#FFF5C2" />
    <rect x="229.487" y="62.354" width="5.18656" height="10.3731" rx="2.59328"
        transform="rotate(71.4588 229.487 62.354)" fill="#FFF5C2" />
    <rect x="113.755" y="196.06" width="5.18656" height="10.7507" rx="2.59328"
        transform="rotate(171.479 113.755 196.06)" fill="#FFF5C2" />
    <rect x="86.0592" y="43.0723" width="5.18656" height="20.7462" rx="2.59328"
        transform="rotate(136.349 86.0592 43.0723)" fill="#FFF5C2" />
    <rect x="85.7531" y="202.137" width="5.18656" height="20.7462" rx="2.59328"
        transform="rotate(-172.175 85.7531 202.137)" fill="#FFF5C2" />
    <rect x="71.4172" y="60.0618" width="5.18656" height="10.3731" rx="2.59328"
        transform="rotate(107.427 71.4172 60.0618)" fill="#FFF5C2" />
    <rect x="104.517" y="28.809" width="5.18656" height="5.18656" rx="2.59328"
        transform="rotate(107.427 104.517 28.809)" fill="#FFF5C2" />
    <rect x="173.389" y="21.5305" width="5.18656" height="5.18656" rx="2.59328"
        transform="rotate(97.8044 173.389 21.5305)" fill="#FFF5C2" />
    <path
        d="M167.573 80.0158C152.419 87.0825 131.347 74.3799 122.132 60.0325C127.199 76.3139 123.226 100.695 108.231 107.688C95.3091 113.713 80.5189 110.317 70.6327 100.361L102.92 160.854L211.874 110.047L186.288 46.43C187.485 60.2433 180.495 73.9904 167.573 80.0158Z"
        fill="#FBD000" />
    <path
        d="M170.549 86.3952C183.47 80.3699 187.4 60.4757 186.128 46.5029C187.4 60.4757 180.335 74.0633 167.573 80.0142C152.419 87.081 131.347 74.3784 122.132 60.031C131.272 74.2188 155.394 93.462 170.549 86.3952Z"
        fill="#F4B10B" />
    <path
        d="M111.982 114.483C127.137 107.417 126.965 76.2285 122.057 59.8727C127.125 76.1541 123.151 100.536 108.156 107.528C95.2344 113.553 80.4442 110.157 70.558 100.201C80.2847 110.231 99.0604 120.509 111.982 114.483Z"
        fill="#F4B10B" />
    <path
        d="M212.459 111.716L103.504 162.523C102.706 162.895 101.611 162.628 101.239 161.831L68.878 101.178C68.506 100.381 68.6871 99.5194 69.4103 98.988C70.1335 98.4565 71.1543 98.5631 71.6114 99.1268C81.1893 108.838 96.4581 112.011 108.263 106.507C121.822 100.184 125.296 76.8124 120.388 60.4566C120.175 59.5846 120.516 58.6489 121.314 58.277C122.111 57.9051 123.047 58.2456 123.578 58.9689C132.793 73.3162 153.727 85.3064 167.287 78.9835C179.091 73.4788 185.677 60.1145 184.395 46.5351C184.342 45.5887 184.991 44.8977 185.703 44.7597C186.575 44.5473 187.351 44.9622 187.723 45.7598L213.31 109.377C213.756 110.334 213.256 111.344 212.459 111.716ZM103.611 158.588L209.535 109.195L187.71 54.894C185.973 66.5797 179.303 77.2644 168.774 82.174C155.374 88.4225 136.641 79.4848 125.405 67.0509C127.548 83.7249 123.151 103.449 109.751 109.697C99.222 114.607 85.9518 113.221 75.8837 107.039L103.611 158.588Z"
        fill="#223D48" />
    <path
        d="M188.561 49.6384C192.966 47.5842 194.872 42.3479 192.818 37.9428C190.763 33.5376 185.527 31.6318 181.122 33.6859C176.717 35.7401 174.811 40.9764 176.865 45.3815C178.919 49.7867 184.156 51.6925 188.561 49.6384Z"
        fill="#FBD000" />
    <path
        d="M185.734 43.5771C182.384 45.1393 178.62 44.5639 176.165 42.2132C176.132 43.3935 176.419 44.425 176.94 45.5417C178.948 49.8489 184.02 51.5624 188.487 49.4795C192.953 47.3967 194.826 42.2506 192.892 38.103C192.372 36.9863 191.766 36.1036 190.841 35.3696C191.063 38.7617 189.084 42.015 185.734 43.5771Z"
        fill="#F4B10B" />
    <path
        d="M123.586 64.4017C127.991 62.3476 129.897 57.1113 127.843 52.7061C125.789 48.3009 120.553 46.3951 116.148 48.4492C111.742 50.5034 109.837 55.7397 111.891 60.1448C113.945 64.55 119.181 66.4558 123.586 64.4017Z"
        fill="#FBD000" />
    <path
        d="M120.611 58.0208C117.261 59.5829 113.582 58.7737 110.893 56.3378C110.861 57.5181 111.222 58.7092 111.743 59.8259C113.825 64.2926 119.12 66.4846 123.587 64.4018C128.054 62.319 129.852 57.0134 127.695 52.3872C127.174 51.2705 126.494 50.2282 125.569 49.4942C125.706 53.1203 123.961 56.4587 120.611 58.0208Z"
        fill="#F4B10B" />
    <path
        d="M189.304 51.2316C184.04 53.6864 177.724 51.3877 175.269 46.1234C172.814 40.8591 175.113 34.5434 180.377 32.0886C185.642 29.6339 191.957 31.9326 194.412 37.1969C196.867 42.4612 194.568 48.7768 189.304 51.2316ZM181.94 35.4387C178.43 37.0752 177.057 41.2112 178.619 44.5612C180.256 48.0708 184.392 49.4437 187.742 47.8816C191.251 46.2451 192.624 42.1091 191.062 38.759C189.5 35.409 185.449 33.8021 181.94 35.4387Z"
        fill="#223D48" />
    <path
        d="M124.33 65.9966C119.066 68.4514 112.75 66.1527 110.296 60.8884C107.841 55.6241 110.139 49.3084 115.404 46.8537C120.668 44.3989 126.984 46.6976 129.438 51.9619C131.893 57.2262 129.595 63.5419 124.33 65.9966ZM116.891 50.0442C113.382 51.6807 111.849 55.8911 113.486 59.4006C115.123 62.9102 119.333 64.4427 122.842 62.8061C126.352 61.1696 127.884 56.9592 126.248 53.4497C124.611 49.9401 120.401 48.4076 116.891 50.0442Z"
        fill="#223D48" />
    <path
        d="M218.872 107.559C220.508 111.069 218.976 115.279 215.466 116.916L105.076 168.392C101.566 170.028 97.3556 168.496 95.7191 164.986L94.6777 162.753C93.0411 159.244 94.5736 155.033 98.0831 153.397L208.474 101.921C211.983 100.284 216.194 101.817 217.83 105.326L218.872 107.559Z"
        fill="#FBD000" />
    <path
        d="M148.878 118.64C153.283 116.586 155.189 111.35 153.135 106.945C151.081 102.539 145.845 100.633 141.439 102.688C137.034 104.742 135.128 109.978 137.183 114.383C139.237 118.788 144.473 120.694 148.878 118.64Z"
        fill="#F4B10B" />
    <path
        d="M213.009 111.649L102.619 163.125C99.5879 164.538 96.0685 163.655 94.0914 161.081C94.155 161.634 94.3782 162.112 94.6014 162.591L95.6428 164.824C97.2793 168.334 101.49 169.866 104.999 168.23L215.39 116.754C218.899 115.117 220.432 110.907 218.795 107.397L217.754 105.164C217.531 104.685 217.308 104.207 216.925 103.802C217.626 106.971 216.04 110.236 213.009 111.649Z"
        fill="#F4B10B" />
    <path
        d="M216.614 118.13L106.542 169.457C102.076 171.54 96.9296 169.667 94.8468 165.2L93.359 162.009C91.2762 157.543 93.1492 152.397 97.6158 150.314L207.687 98.9865C212.154 96.9037 217.3 98.7767 219.383 103.243L220.871 106.434C222.954 110.901 221.081 116.047 216.614 118.13ZM99.1036 153.504C96.3917 154.769 95.2849 157.81 96.5495 160.522L98.0373 163.712C99.3019 166.424 102.343 167.531 105.055 166.266L215.126 114.939C217.838 113.674 218.945 110.634 217.68 107.922L216.192 104.731C214.928 102.019 211.887 100.912 209.175 102.177L99.1036 153.504Z"
        fill="#223D48" />
    <path
        d="M146.648 113.856C151.053 111.801 152.959 106.565 150.904 102.16C148.85 97.7548 143.614 95.8489 139.209 97.9031C134.804 99.9572 132.898 105.194 134.952 109.599C137.006 114.004 142.242 115.91 146.648 113.856Z"
        fill="#FF4848" />
    <path
        d="M144.786 109.866C141.117 111.577 136.971 110.598 134.451 107.694C134.589 108.406 134.727 109.119 135.099 109.916C137.108 114.224 142.254 116.097 146.721 114.014C151.187 111.931 153.06 106.785 151.052 102.478C150.754 101.84 150.223 101.116 149.766 100.553C150.296 104.19 148.456 108.155 144.786 109.866Z"
        fill="#EA291C" />
    <path
        d="M147.391 115.45C142.126 117.905 135.811 115.606 133.356 110.342C130.901 105.078 133.2 98.7622 138.464 96.3074C143.729 93.8526 150.044 96.1513 152.499 101.416C154.954 106.68 152.655 112.996 147.391 115.45ZM139.952 99.4979C136.442 101.134 134.91 105.345 136.547 108.854C138.183 112.364 142.393 113.896 145.903 112.26C149.413 110.623 150.945 106.413 149.308 102.903C147.672 99.3939 143.462 97.8614 139.952 99.4979Z"
        fill="#223D48" />
    <path
        d="M176.427 90.2546C175.629 90.6266 174.534 90.3604 174.162 89.5628C173.79 88.7652 174.056 87.67 174.854 87.2981C185.011 81.5909 187.629 72.2129 187.629 72.2129C187.81 71.3516 188.852 70.6714 189.714 70.8524C190.575 71.0334 191.181 71.9162 191 72.7775C190.989 73.1709 188.179 83.8036 176.427 90.2546Z"
        fill="white" />
    <path
        d="M156.064 91.9842C155.745 92.133 155.352 92.1222 155.118 92.0371C143.209 89.8218 134.13 82.0141 133.748 81.6099C133.057 80.961 132.929 79.8551 133.578 79.1641C134.227 78.4732 135.174 78.4203 136.024 78.9947C136.098 79.1543 144.635 86.6322 155.683 88.6664C156.544 88.8475 157.15 89.7302 157.043 90.751C156.947 91.3784 156.543 91.761 156.064 91.9842Z"
        fill="white" />
    <path
        d="M113.574 119.563C104.162 123.952 95.3158 122.057 94.848 121.887C93.9867 121.706 93.3065 120.663 93.4875 119.802C93.6685 118.941 94.5513 118.335 95.572 118.441C95.7316 118.367 107.864 121.061 117.936 112.674C126.562 105.35 126.522 95.2696 126.682 95.1952C126.629 94.2488 127.437 93.4835 128.384 93.4306C129.33 93.3777 130.095 94.1861 130.148 95.1325C130.138 95.5259 130.219 106.946 120.306 115.259C117.892 117.161 115.808 118.522 113.574 119.563Z"
        fill="white" />
    <path
        d="M199.286 100.962L105.167 144.851C104.21 145.297 103.274 144.956 102.828 143.999C102.382 143.042 102.722 142.107 103.679 141.66L197.799 97.7717C198.756 97.3254 199.691 97.6659 200.138 98.6231C200.51 99.4207 200.243 100.516 199.286 100.962Z"
        fill="white" />
    <path
        d="M213.99 110.418C213.352 110.716 212.491 110.535 212.034 109.971C210.971 108.525 210.205 107.716 206.855 109.279L124.541 147.662C123.584 148.109 122.648 147.768 122.202 146.811C121.755 145.854 122.096 144.918 123.053 144.472L205.208 106.162C211.11 103.41 213.396 106.229 214.533 107.835C215.064 108.558 215.032 109.738 214.383 110.429C214.075 110.185 214.149 110.344 213.99 110.418Z"
        fill="white" />
    <path
        d="M115.692 151.595L101.335 158.29C100.378 158.736 99.4424 158.395 98.9961 157.438C98.5497 156.481 99.0498 155.471 99.8474 155.099L114.205 148.404C115.162 147.958 116.097 148.299 116.544 149.256C116.99 150.213 116.49 151.223 115.692 151.595Z"
        fill="white" />
    <path
        d="M124.333 57.2557C123.694 57.5533 122.908 57.5318 122.451 56.9681C122.142 56.7234 120.324 56.9887 119.282 57.6689C118.324 58.1152 117.389 57.7747 116.857 57.0515C116.411 56.0943 116.752 55.1587 117.475 54.6272C118.272 54.2553 122.346 52.1617 124.727 54.3529C125.418 55.0017 125.545 56.1077 124.896 56.7986C124.811 57.0326 124.492 57.1813 124.333 57.2557Z"
        fill="white" />
    <path
        d="M188.033 40.177C187.395 40.4746 186.608 40.4531 185.991 39.9637C185.683 39.7191 183.865 39.9844 182.663 40.739C181.706 41.1853 180.61 40.9192 180.239 40.1215C179.867 39.3239 180.133 38.2287 181.015 37.6229C181.813 37.2509 186.046 35.083 188.587 37.1998C189.278 37.8486 189.405 38.9546 188.756 39.6456C188.352 40.0282 188.192 40.1026 188.033 40.177Z"
        fill="white" />
    <path
        d="M146.278 104.319C145.64 104.616 144.779 104.435 144.396 104.031C144.322 103.871 143.854 103.701 143.461 103.69C142.28 103.658 140.93 104.094 140.451 104.317C139.728 104.848 138.781 104.901 138.25 104.178C137.793 103.614 137.9 102.593 138.463 102.136C139.75 101.148 141.973 100.5 143.855 100.787C145.269 100.905 146.279 101.405 146.811 102.128C147.268 102.692 147.087 103.553 146.363 104.085C146.438 104.244 146.438 104.244 146.278 104.319Z"
        fill="white" />
    <path
        d="M71.8859 103.465C76.1148 101.493 77.9444 96.4659 75.9724 92.237C74.0004 88.008 68.9736 86.1784 64.7447 88.1504C60.5157 90.1223 58.6861 95.1492 60.6581 99.3781C62.6301 103.607 67.657 105.437 71.8859 103.465Z"
        fill="#FBD000" />
    <path
        d="M69.2082 97.7218C65.8582 99.2839 62.0198 98.549 59.5641 96.1983C59.5319 97.3786 59.8931 98.5697 60.4138 99.6863C62.4966 104.153 67.6427 106.026 72.1094 103.943C76.576 101.86 78.3746 96.5548 76.3662 92.2476C75.8455 91.1309 75.1652 90.0887 74.2403 89.3547C74.4626 92.7468 72.5582 96.1596 69.2082 97.7218Z"
        fill="#F4B10B" />
    <path
        d="M72.8516 105.534C67.5873 107.989 61.2717 105.691 58.8169 100.426C56.3621 95.1619 58.6608 88.8463 63.9251 86.3915C69.1894 83.9367 75.505 86.2354 77.9598 91.4998C80.4146 96.7641 78.1159 103.08 72.8516 105.534ZM65.4128 89.582C61.9033 91.2185 60.3708 95.4289 62.0074 98.9385C63.6439 102.448 67.8543 103.981 71.3638 102.344C74.8734 100.707 76.4058 96.4971 74.7693 92.9875C73.1328 89.478 68.9224 87.9455 65.4128 89.582Z"
        fill="#223D48" />
    <path
        d="M71.5803 94.48C70.9422 94.7775 70.1554 94.756 69.5388 94.2667C69.2305 94.0221 67.4121 94.2874 66.2103 95.042C65.2531 95.4883 64.1579 95.2221 63.786 94.4245C63.4141 93.6269 63.6802 92.5317 64.563 91.9259C65.3606 91.5539 69.5934 89.3859 72.1341 91.5028C72.8251 92.1516 72.9524 93.2575 72.3036 93.9485C71.8994 94.3312 71.7399 94.4056 71.5803 94.48Z"
        fill="white" />
</svg>
