<svg width="120" height="120" viewBox="0 0 120 120" fill="none" xmlns="http://www.w3.org/2000/svg">
    <path
        d="M13.1875 72C10.9875 72 9.1875 70.2 9.1875 68C9.1875 65.8 10.9875 64 13.1875 64C15.3875 64 17.1875 65.8 17.1875 68C17.1875 70.2 15.3875 72 13.1875 72ZM13.1875 65.9C11.9875 65.9 11.0875 66.9 11.0875 68C11.0875 69.2 12.0875 70.1 13.1875 70.1C14.3875 70.1 15.2875 69.1 15.2875 68C15.2875 66.8 14.3875 65.9 13.1875 65.9Z"
        fill="white" />
    <path
        d="M42.1875 26C39.9875 26 38.1875 24.2 38.1875 22C38.1875 19.8 39.9875 18 42.1875 18C44.3875 18 46.1875 19.8 46.1875 22C46.1875 24.2 44.3875 26 42.1875 26ZM42.1875 19.9C40.9875 19.9 40.0875 20.9 40.0875 22C40.0875 23.2 41.0875 24.1 42.1875 24.1C43.3875 24.1 44.2875 23.1 44.2875 22C44.2875 20.8 43.3875 19.9 42.1875 19.9Z"
        fill="white" />
    <path
        d="M94.1875 61C91.9875 61 90.1875 59.2 90.1875 57C90.1875 54.8 91.9875 53 94.1875 53C96.3875 53 98.1875 54.8 98.1875 57C98.1875 59.2 96.3875 61 94.1875 61ZM94.1875 54.9C92.9875 54.9 92.0875 55.9 92.0875 57C92.0875 58.2 93.0875 59.1 94.1875 59.1C95.3875 59.1 96.2875 58.1 96.2875 57C96.2875 55.8 95.3875 54.9 94.1875 54.9Z"
        fill="white" />
    <path
        d="M37 50C37 49.6154 36.6078 49.2308 36.0196 49.1346L34.1569 48.8462C33.6667 48.75 33.0784 48.2692 33.0784 47.7885L32.8824 45.9615C32.7843 45.4808 32.3922 45 32 45C31.6078 45 31.2157 45.3846 31.1176 45.9615L30.9216 47.7885C30.8235 48.2692 30.3333 48.8462 29.8431 48.8462L27.9804 49.1346C27.4902 49.2308 27 49.6154 27 50C27 50.3846 27.3922 50.7692 27.9804 50.8654L29.8431 51.1538C30.3333 51.25 30.9216 51.7308 30.9216 52.2115L31.2157 54.0385C31.3137 54.5192 31.7059 55 32.098 55C32.4902 55 32.8824 54.6154 32.8824 54.0385L33.1765 52.0192C33.2745 51.5385 33.7647 51.0577 34.2549 50.9615L36.0196 50.8654C36.6078 50.6731 37 50.2885 37 50Z"
        fill="white" />
    <path
        d="M83 87C83 86.6154 82.6078 86.2308 82.0196 86.1346L80.1569 85.8462C79.6667 85.75 79.0784 85.2692 79.0784 84.7885L78.8824 82.9615C78.7843 82.4808 78.3922 82 78 82C77.6078 82 77.2157 82.3846 77.1176 82.9615L76.9216 84.7885C76.8235 85.2692 76.3333 85.8462 75.8431 85.8462L73.9804 86.1346C73.4902 86.2308 73 86.6154 73 87C73 87.3846 73.3922 87.7692 73.9804 87.8654L75.8431 88.1538C76.3333 88.25 76.9216 88.7308 76.9216 89.2115L77.2157 91.0385C77.3137 91.5192 77.7059 92 78.098 92C78.4902 92 78.8824 91.6154 78.8824 91.0385L79.1765 89.0192C79.2745 88.5385 79.7647 88.0577 80.2549 87.9615L82.0196 87.8654C82.6078 87.6731 83 87.2885 83 87Z"
        fill="white" />
    <path
        d="M95 26.052C95 25.6358 94.5862 25.2197 93.9655 25.1156L89 24.2832C88.4828 24.1792 87.8621 23.659 87.7586 23.0347L86.931 18.0405C86.8276 17.5202 86.4138 17 86 17C85.5862 17 85.1724 17.4162 85.069 18.0405L84.2414 23.0347C84.1379 23.5549 83.6207 24.1792 83 24.2832L78.0345 25.1156C77.5172 25.2197 77 25.6358 77 26.052C77 26.4682 77.4138 26.8844 78.0345 26.9884L82.8965 27.6127C83.4138 27.7168 84.0345 28.237 84.1379 28.7572L85.069 33.9595C85.1724 34.4798 85.5862 35 86 35C86.4138 35 86.8276 34.5838 86.931 33.9595L87.8621 28.6532C87.9655 28.1329 88.4828 27.6127 89.1034 27.5087L93.9655 26.8844C94.5862 26.9884 95 26.4682 95 26.052Z"
        fill="white" />
</svg>
