<svg width="27" height="31" viewBox="0 0 27 31" fill="none" xmlns="http://www.w3.org/2000/svg">
    <path
        d="M26.0606 8.67199C26.3112 7.66975 25.7474 6.4796 24.8078 6.04112L15.13 1.37448C14.1905 0.936001 12.6558 0.904681 11.7475 1.34316L1.63128 6.04112C0.691692 6.4796 0.127938 7.66975 0.378496 8.67199L3.79234 22.6719C4.04289 23.6742 4.95116 24.9583 5.79679 25.522L11.9041 29.4996C12.7811 30.0634 14.1591 30.0321 15.0361 29.4683L20.7049 25.5534C21.5506 24.9583 22.4588 23.6742 22.7094 22.6719L26.0606 8.67199Z"
        fill="#1EA1DB" />
    <path
        d="M23.9621 9.17386C24.1187 8.51614 23.7429 7.70183 23.1165 7.41995L14.5349 3.2231C13.9085 2.9099 12.9063 2.9099 12.2799 3.19178L3.32247 7.41995C2.69608 7.70183 2.32024 8.51614 2.47684 9.17386L5.45221 21.8897C5.60881 22.5474 6.20388 23.4244 6.76763 23.8002L12.3738 27.4959C12.9376 27.8718 13.8772 27.8718 14.4409 27.4646L19.6713 23.8315C20.2351 23.4244 20.8302 22.5787 20.9867 21.8897L23.9621 9.17386Z"
        fill="#D2ECF8" />
    <path
        d="M2.5708 9.67497C2.7274 9.33046 2.97796 9.04858 3.29115 8.89198L12.2486 4.69513C12.875 4.41325 13.8772 4.41325 14.5036 4.72645L23.0852 8.89198C23.3984 9.04858 23.6489 9.33046 23.8055 9.67497L23.9308 9.17386C24.0874 8.51614 23.7116 7.70183 23.0852 7.41995L14.5349 3.2231C13.9085 2.9099 12.9063 2.9099 12.2799 3.19178L3.32247 7.41995C2.69608 7.70183 2.32024 8.51614 2.47684 9.17386L2.5708 9.67497Z"
        fill="#7BC7EA" />
    <path
        d="M13.0003 10.4257C13.1569 10.1125 13.4075 10.1125 13.5641 10.4257L14.6602 12.6807C14.8168 12.9939 15.224 13.2758 15.5685 13.3384L18.0428 13.7143C18.3873 13.7769 18.4499 13.9961 18.1994 14.2467L16.4141 16.0006C16.1636 16.2512 16.007 16.721 16.0696 17.0655L16.5081 19.5398C16.5707 19.8843 16.3515 20.0409 16.0696 19.8529L13.8459 18.6315C13.5327 18.4749 13.0316 18.4749 12.7497 18.6315L10.526 19.7903C10.2129 19.9469 10.0249 19.7903 10.0876 19.4771L10.526 17.0028C10.5887 16.6583 10.4321 16.1885 10.1815 15.938L8.39631 14.1841C8.14576 13.9335 8.23971 13.7143 8.55291 13.6516L11.0272 13.2758C11.3717 13.2132 11.7788 12.9313 11.9354 12.6181L13.0003 10.4257Z"
        fill="#7BC7EA" />
    <path
        d="M13.5013 28.0275H13.1881C12.7497 28.0275 12.4991 27.9336 12.1859 27.7143L6.5797 24.0186C5.92199 23.5801 5.29559 22.6718 5.10768 21.9202L2.16363 9.23565C1.97571 8.42134 2.44551 7.48175 3.19718 7.13723L12.1546 2.94038C12.4991 2.78378 12.9376 2.68982 13.4074 2.68982C13.8772 2.68982 14.347 2.78378 14.6915 2.94038L23.2731 7.10591C24.0247 7.48175 24.4632 8.42134 24.2753 9.23565L21.2999 21.9515C21.112 22.7032 20.4856 23.6428 19.8592 24.0812L14.6288 27.7143C14.2843 27.9336 13.9711 28.0275 13.5013 28.0275ZM13.3761 3.31621C13.0002 3.31621 12.6557 3.37885 12.4052 3.50413L3.44774 7.70098C2.94662 7.92022 2.63342 8.57794 2.7587 9.11037L5.73407 21.8262C5.85935 22.4213 6.4231 23.2043 6.92421 23.5488L12.5304 27.2445C12.7497 27.4011 13.0629 27.4638 13.3761 27.4638C13.7206 27.4638 14.0338 27.3698 14.253 27.2132L19.4834 23.5801C19.9845 23.2356 20.5169 22.4213 20.6735 21.8262L23.6489 9.11037C23.7742 8.57794 23.461 7.92022 22.9599 7.70098L14.4096 3.50413C14.1277 3.37885 13.7519 3.31621 13.3761 3.31621Z"
        fill="#145C99" />
    <path
        d="M13.0002 9.36222C13.1568 9.04902 13.4074 9.04902 13.564 9.36222L14.6602 11.6172C14.8168 11.9304 15.2239 12.2123 15.5684 12.275L18.0427 12.6508C18.3872 12.7134 18.4499 12.9327 18.1993 13.1832L16.4141 14.9371C16.1635 15.1877 16.0069 15.6575 16.0696 16.002L16.508 18.4763C16.5707 18.8208 16.3514 18.9774 16.0696 18.7895L13.8459 17.6306C13.5327 17.474 13.0316 17.474 12.7497 17.6306L10.526 18.7895C10.2128 18.9461 10.0249 18.7895 10.0875 18.4763L10.526 16.002C10.5886 15.6575 10.432 15.1877 10.1815 14.9371L8.39625 13.1832C8.14569 12.9327 8.23965 12.7134 8.55285 12.6508L11.0271 12.275C11.3716 12.2123 11.7788 11.9304 11.9354 11.6172L13.0002 9.36222Z"
        fill="#FFBB80" />
    <path
        d="M10.3693 15.2496L10.4633 14.6232C10.5259 14.2787 10.3693 13.8089 10.1188 13.5583L9.05391 12.5248L8.49015 12.6187C8.14564 12.6814 8.083 12.9006 8.33355 13.1512L10.1188 14.9051C10.2441 14.999 10.338 15.1243 10.3693 15.2496Z"
        fill="#FF9F4C" />
    <path
        d="M18.0426 12.6187L17.4789 12.5248L16.414 13.5583C16.1634 13.8089 16.0068 14.2787 16.0695 14.6232L16.1634 15.2496C16.2261 15.1243 16.2887 14.999 16.3827 14.9051L18.1679 13.1512C18.4811 12.9006 18.3871 12.6814 18.0426 12.6187Z"
        fill="#FF9F4C" />
    <path
        d="M16.3513 17.4741C16.2887 17.5054 16.1634 17.4741 16.0695 17.4114L13.8458 16.2526C13.5326 16.096 13.0315 16.096 12.7496 16.2526L10.5259 17.4114C10.4006 17.4741 10.3067 17.4741 10.244 17.4741L10.0874 18.4136C10.0248 18.7582 10.244 18.9148 10.5259 18.7268L12.7496 17.568C13.0628 17.4114 13.5639 17.4114 13.8458 17.568L16.0695 18.7268C16.3827 18.8834 16.5706 18.7268 16.5079 18.4136L16.3513 17.4741Z"
        fill="#FF9F4C" />
    <path
        d="M13.8147 30.2206H13.1883C12.5619 30.2206 12.1547 30.064 11.7163 29.7508L5.60892 25.7732C4.66933 25.1781 3.72974 23.8001 3.44787 22.7352L0.0653446 8.73525C-0.216532 7.57642 0.44118 6.26099 1.50605 5.75988L11.6223 1.06191C12.0921 0.842669 12.8438 0.780029 13.5015 0.780029C14.1905 0.780029 14.7856 0.873989 15.2867 1.09323L24.9331 5.75988C25.998 6.26099 26.6244 7.60774 26.3425 8.76657L22.96 22.7352C22.7094 23.8001 21.7385 25.1781 20.8303 25.8045L15.1614 29.7195C14.6916 30.0327 14.4724 30.2206 13.8147 30.2206ZM13.5015 1.40642C12.9064 1.40642 12.28 1.46906 11.8728 1.65698L1.75661 6.35495C0.973614 6.73079 0.4725 7.76434 0.660418 8.60997L4.07426 22.6099C4.2935 23.5495 5.17045 24.7397 5.95344 25.2721L12.0608 29.2497C12.4053 29.469 12.9064 29.6255 13.4075 29.6255C13.9399 29.6255 14.4724 29.469 14.8169 29.2184L20.4858 25.3034C21.2687 24.771 22.1144 23.5182 22.3649 22.6099L25.7474 8.60997C25.9667 7.76434 25.4656 6.69947 24.6513 6.32363L15.0048 1.65698C14.5977 1.46906 14.0965 1.40642 13.5015 1.40642Z"
        fill="#145C99" />
    <path
        d="M16.2887 19.1318C16.1634 19.1318 16.0381 19.1005 15.9128 19.0378L13.6892 17.879C13.5012 17.785 13.0628 17.785 12.8748 17.879L10.6512 19.0378C10.338 19.1944 10.0561 19.1631 9.86816 18.9439C9.7742 18.8499 9.71156 18.662 9.74288 18.3801L10.1814 15.9059C10.2127 15.6553 10.0874 15.3108 9.9308 15.1229L8.14558 13.369C7.92634 13.181 7.8637 12.9305 7.92634 12.7112C7.98898 12.492 8.20822 12.3354 8.4901 12.3041L10.9643 11.9282C11.2149 11.8969 11.5281 11.6777 11.6221 11.4584L12.7182 9.20342C12.8435 8.95286 13.0628 8.79626 13.282 8.79626C13.5012 8.79626 13.7205 8.95286 13.8458 9.20342L14.9419 11.4584C15.0359 11.6777 15.3491 11.8969 15.5997 11.9282L18.0739 12.3041C18.3558 12.3354 18.575 12.492 18.6377 12.7112C18.7003 12.9305 18.6377 13.181 18.4184 13.369L16.6332 15.1229C16.4453 15.2795 16.3513 15.6553 16.3826 15.9059L16.8211 18.3801C16.8838 18.662 16.7898 18.8499 16.6958 18.9439C16.6019 19.0692 16.4453 19.1318 16.2887 19.1318ZM13.282 17.1273C13.5326 17.1273 13.7831 17.19 13.971 17.2839L16.1947 18.4428L15.7876 15.9685C15.7249 15.53 15.9128 14.9663 16.226 14.6217L18.0113 12.8678L15.537 12.5233C15.0985 12.4607 14.5974 12.1162 14.4095 11.709L13.3133 9.4853L12.1858 11.7403C11.9979 12.1475 11.4968 12.492 11.0583 12.5546L8.58405 12.8992L10.3693 14.6531C10.6825 14.9663 10.8704 15.53 10.8077 15.9998L10.3693 18.4741L12.593 17.3152C12.7809 17.19 13.0314 17.1273 13.282 17.1273Z"
        fill="#663210" />
    <path
        d="M8.80347 23.6753C8.74083 23.6753 8.67819 23.6439 8.61555 23.6126L7.45673 22.8609C7.04957 22.5791 6.64242 22.0153 6.51714 21.5455L4.8572 14.6552C4.82588 14.4986 4.91984 14.3106 5.07643 14.2793C5.23303 14.248 5.42095 14.342 5.45227 14.4986L7.11221 21.3889C7.17485 21.7021 7.48805 22.1406 7.76992 22.3285L8.92875 23.0802C9.08535 23.1741 9.11667 23.3621 9.02271 23.5187C8.99139 23.6126 8.89743 23.6753 8.80347 23.6753Z"
        fill="#7BC7EA" />
    <path
        d="M20.4544 8.57931C20.4544 8.45403 20.3291 8.32875 20.1412 8.29744L18.6378 8.04688C18.4812 8.01556 18.2933 7.85896 18.262 7.67104L18.0114 6.16769C17.9801 6.01109 17.8548 5.85449 17.7296 5.85449C17.6043 5.85449 17.479 5.97977 17.4477 6.16769L17.1971 7.67104C17.1658 7.82764 17.0092 8.01556 16.8213 8.04688L15.318 8.29744C15.1614 8.32875 15.0048 8.45403 15.0048 8.57931C15.0048 8.70459 15.13 8.82987 15.318 8.86119L16.79 9.04911C16.9466 9.08043 17.1345 9.23703 17.1658 9.39363L17.4477 10.9596C17.479 11.1162 17.6043 11.2728 17.7296 11.2728C17.8548 11.2728 17.9801 11.1475 18.0114 10.9596L18.2933 9.36231C18.3246 9.20571 18.4812 9.04911 18.6692 9.01779L20.1412 8.82987C20.3291 8.82987 20.4544 8.70459 20.4544 8.57931Z"
        fill="#7BC7EA" />
</svg>
