<svg width="60" height="60" viewBox="0 0 60 60" fill="none" xmlns="http://www.w3.org/2000/svg">
    <path d="M36.6059 32.6051L33.6804 35.5314L41.7278 43.5764L44.6532 40.6501L36.6059 32.6051Z"
        fill="#00B3F9" />
    <path
        d="M36.5996 32.6221L33.6514 35.5703L36.7548 38.6737C37.272 38.2599 37.7375 37.8461 38.203 37.3806C38.7203 36.8634 39.1858 36.2944 39.6513 35.7255L36.5996 32.6221Z"
        fill="#00B3F9" />
    <path
        d="M41.7201 44.1043C41.5649 44.1043 41.4615 44.0526 41.3581 43.9491L33.2892 35.932C33.1858 35.8286 33.134 35.7251 33.134 35.57C33.134 35.4148 33.1858 35.3113 33.2892 35.2079L36.2374 32.2597C36.4443 32.0528 36.7547 32.0528 36.9616 32.2597L45.0304 40.3285C45.2373 40.5354 45.2373 40.8457 45.0304 41.0526L42.0822 44.0009C41.9787 44.0526 41.8753 44.1043 41.7201 44.1043ZM34.4271 35.57L41.7201 42.863L43.8925 40.6906L36.5995 33.3459L34.4271 35.57Z"
        fill="#0C508E" />
    <path
        d="M36.1592 35.3021C43.2895 28.1718 43.2895 16.6114 36.1592 9.48111C29.0289 2.35085 17.4685 2.35085 10.3382 9.48112C3.20796 16.6114 3.20796 28.1718 10.3382 35.3021C17.4685 42.4324 29.0289 42.4324 36.1592 35.3021Z"
        fill="#00B3F9" />
    <path
        d="M23.2552 40.7428C18.2897 40.7428 13.5829 38.829 10.0657 35.3118C2.82445 28.0706 2.82445 16.2259 10.0657 8.98463C13.5829 5.41572 18.2897 3.50195 23.2552 3.50195C28.2206 3.50195 32.9275 5.41572 36.4447 8.93291C39.9618 12.4501 41.8756 17.1569 41.8756 22.1224C41.8756 27.0878 39.9618 31.7946 36.4447 35.3118C32.9275 38.829 28.2206 40.7428 23.2552 40.7428ZM23.2552 4.53642C18.5484 4.53642 14.1519 6.34674 10.7898 9.70876C3.91064 16.588 3.91064 27.7085 10.7898 34.5877C14.1001 37.898 18.5484 39.76 23.2552 39.76C27.962 39.76 32.3585 37.9497 35.7205 34.5877C39.0308 31.2774 40.8929 26.8292 40.8929 22.1224C40.8929 17.4155 39.0825 13.0191 35.7205 9.65704C32.3585 6.34674 27.962 4.53642 23.2552 4.53642Z"
        fill="#0C508E" />
    <path
        d="M32.0983 31.2424C36.9865 26.3542 36.9865 18.429 32.0983 13.5408C27.2102 8.65262 19.2849 8.65262 14.3967 13.5408C9.50854 18.429 9.50854 26.3542 14.3967 31.2424C19.2849 36.1306 27.2102 36.1306 32.0983 31.2424Z"
        fill="#9BEBF9" />
    <path
        d="M55.4269 47.4669C57.4441 49.4841 57.5475 52.6393 55.6855 54.5013C53.8235 56.3633 50.6683 56.2599 48.6511 54.2427L40.8926 46.4842C38.8754 44.467 38.772 41.3118 40.634 39.4498C42.496 37.5878 45.6512 37.6912 47.6684 39.7084L55.4269 47.4669Z"
        fill="#C68D55" />
    <path
        d="M56.2549 51.9153C54.3929 53.7773 51.2377 53.6739 49.2205 51.6567L41.462 43.8982C40.531 42.9671 39.962 41.7258 39.9103 40.5361C38.9276 42.3982 39.2896 44.8292 40.9448 46.4843L48.7033 54.2428C50.7205 56.26 53.8756 56.3635 55.7377 54.5014C56.7204 53.5187 57.1342 52.1739 57.0308 50.8291C56.8239 51.2429 56.5652 51.6049 56.2549 51.9153Z"
        fill="#A55F26" />
    <path
        d="M52.324 56.2591C50.824 56.2591 49.3241 55.6384 48.1861 54.5005L40.4794 46.7937C38.2553 44.5696 38.1518 41.1041 40.2207 39.0869C41.1518 38.1559 42.4449 37.6387 43.8414 37.6387C45.3414 37.6387 46.8413 38.2594 47.9793 39.3973L55.686 47.1041C57.9101 49.3282 58.0136 52.7936 55.9447 54.8108C54.9619 55.7419 53.7206 56.2591 52.324 56.2591ZM43.8414 38.6731C42.7552 38.6731 41.7207 39.0869 40.9449 39.8111C39.2897 41.4662 39.3932 44.2593 41.2035 46.0696L48.9103 53.7764C49.8413 54.7074 51.0309 55.2246 52.2723 55.2246C53.3585 55.2246 54.393 54.8108 55.1688 54.0867C56.824 52.4316 56.7205 49.6385 54.9102 47.8282L47.2034 40.1214C46.3241 39.1904 45.0827 38.6731 43.8414 38.6731Z"
        fill="#7C4119" />
    <path
        d="M13.4263 20.5712C13.3746 20.5712 13.3229 20.5712 13.3229 20.5712C13.0642 20.5195 12.8574 20.2092 12.9608 19.9506C14.3573 14.2093 20.2021 10.6921 25.9434 12.1403C27.5985 12.5541 29.0985 13.33 30.3399 14.4161C30.5467 14.623 30.5985 14.9334 30.3916 15.1403C30.1847 15.3472 29.8743 15.3989 29.6675 15.192C28.5295 14.2093 27.1847 13.4851 25.6848 13.1231C20.5124 11.83 15.2366 15.0368 13.9953 20.2092C13.8918 20.4161 13.6849 20.5712 13.4263 20.5712Z"
        fill="white" />
    <path
        d="M33.3928 25.1741C33.341 25.1741 33.341 25.1741 33.2893 25.1741C33.0307 25.1224 32.8755 24.8121 32.9273 24.5535C33.341 22.588 33.2376 20.5708 32.6169 18.7087C32.5135 18.4501 32.6686 18.1398 32.8755 18.0363C33.1341 17.9329 33.3928 18.088 33.4962 18.3467C34.2203 20.4156 34.3238 22.6397 33.8583 24.8121C33.7548 25.019 33.5997 25.1741 33.3928 25.1741Z"
        fill="white" />
    <path opacity="0.3"
        d="M32.1001 27.0883C27.2381 31.9503 19.3245 31.9503 14.4107 27.0883C12.497 25.1745 11.3591 22.7952 10.9453 20.3125C10.3246 24.14 11.4625 28.2262 14.4107 31.2261C19.2727 36.0881 27.1864 36.0881 32.1001 31.2261C35.0484 28.2779 36.238 24.1918 35.5656 20.3125C35.1518 22.7952 34.0139 25.1745 32.1001 27.0883Z"
        fill="#00B3F9" />
    <path
        d="M23.2548 35.5703C19.7894 35.5703 16.5308 34.1738 14.0998 31.6911C9.08262 26.5705 9.08262 18.1913 14.0998 13.0189C16.5308 10.5879 19.7894 9.19141 23.2548 9.19141C26.7203 9.19141 29.9789 10.5879 32.4099 13.0707C34.8409 15.5534 36.1857 18.8637 36.1857 22.3809C36.1857 25.8981 34.8409 29.2084 32.4099 31.6911C29.9789 34.1738 26.7203 35.5703 23.2548 35.5703ZM23.2548 10.2259C20.0997 10.2259 17.0997 11.4672 14.8239 13.7948C10.1688 18.5533 10.1688 26.2084 14.8239 30.967C17.0997 33.2428 20.048 34.5359 23.2548 34.5359C26.4617 34.5359 29.4099 33.2945 31.6857 30.967C33.9099 28.6911 35.1512 25.6394 35.1512 22.3809C35.1512 19.1223 33.9099 16.0706 31.6857 13.7948C29.4099 11.519 26.41 10.2259 23.2548 10.2259Z"
        fill="#0C508E" />
    <path opacity="0.5"
        d="M52.7374 49.0193C52.634 49.0193 52.4788 48.9676 52.3754 48.8642L48.703 45.1918C48.4961 44.9849 48.4961 44.6746 48.703 44.4677C48.9099 44.2608 49.2203 44.2608 49.4271 44.4677L53.0995 48.14C53.3064 48.3469 53.3064 48.6573 53.0995 48.8642C52.9961 48.9676 52.8926 49.0193 52.7374 49.0193Z"
        fill="white" />
    <path opacity="0.5"
        d="M46.0128 42.2953C45.9094 42.2953 45.7542 42.2436 45.6508 42.1401C44.7198 41.1574 43.3232 40.9505 42.7025 41.6229C42.4956 41.8298 42.1853 41.8298 41.9784 41.6229C41.7715 41.416 41.7715 41.1056 41.9784 40.8987C43.0129 39.8126 44.9784 40.0712 46.3232 41.416C46.5301 41.6229 46.5301 41.9332 46.3232 42.1401C46.2715 42.2436 46.168 42.2953 46.0128 42.2953Z"
        fill="white" />
    <path opacity="0.5"
        d="M23.358 37.64C19.3236 37.64 15.5478 36.0883 12.703 33.2436C7.9962 28.5367 6.91001 21.3989 10.0651 15.5542C10.7893 14.2611 11.6686 13.0197 12.703 11.9852C12.9099 11.7784 13.2203 11.7784 13.4272 11.9852C13.634 12.1921 13.634 12.5025 13.4272 12.7094C12.4444 13.6921 11.6168 14.83 10.9444 16.0714C8.04792 21.5541 9.03067 28.1747 13.4272 32.5712C16.065 35.209 19.634 36.6573 23.358 36.6573C27.1339 36.6573 30.651 35.209 33.2889 32.5712C33.4958 32.3643 33.8062 32.3643 34.0131 32.5712C34.22 32.778 34.22 33.0884 34.0131 33.2953C31.1683 36.0883 27.3925 37.64 23.358 37.64Z"
        fill="white" />
    <path opacity="0.5"
        d="M35.8752 30.3985C35.7718 30.3985 35.72 30.3985 35.6166 30.3468C35.4097 30.1916 35.3063 29.8812 35.4614 29.6226C36.6511 27.3985 37.3235 24.8124 37.3235 22.1745C37.3235 21.8641 37.5304 21.6572 37.789 21.6572C38.0476 21.6572 38.2545 21.9158 38.2545 22.1745C38.2545 24.9675 37.5821 27.7606 36.289 30.1399C36.1856 30.295 36.0304 30.3985 35.8752 30.3985Z"
        fill="white" />
    <path
        d="M34.4794 12.7099C34.4794 12.503 34.2725 12.2961 33.9622 12.2444L31.5312 11.7788C31.2725 11.7271 30.9622 11.4685 30.9105 11.1582L30.4967 8.67544C30.445 8.41682 30.2381 8.1582 30.0312 8.1582C29.8243 8.1582 29.6174 8.3651 29.5657 8.67544L29.1519 11.1582C29.1002 11.4168 28.8415 11.7271 28.5312 11.7788L26.0485 12.1926C25.7899 12.2444 25.5312 12.4512 25.5312 12.6581C25.5312 12.865 25.7381 13.0719 26.0485 13.1236L28.4795 13.434C28.7381 13.4857 29.0484 13.7443 29.1002 14.0029L29.5657 16.5891C29.6174 16.8477 29.8243 17.1063 30.0312 17.1063C30.2381 17.1063 30.445 16.8995 30.4967 16.5891L30.9622 13.9512C31.0139 13.6926 31.2725 13.434 31.5829 13.3823L34.0139 13.0719C34.2208 13.1236 34.4794 12.9168 34.4794 12.7099Z"
        fill="white" />
</svg>
