<svg width="120" height="120" viewBox="0 0 120 120" fill="none" xmlns="http://www.w3.org/2000/svg">
    <path
        d="M61.1875 68.0002C58.9875 68.0002 57.1875 66.2002 57.1875 64.0002C57.1875 61.8002 58.9875 60.0002 61.1875 60.0002C63.3875 60.0002 65.1875 61.8002 65.1875 64.0002C65.1875 66.2002 63.3875 68.0002 61.1875 68.0002ZM61.1875 61.9002C59.9875 61.9002 59.0875 62.9002 59.0875 64.0002C59.0875 65.2002 60.0875 66.1002 61.1875 66.1002C62.3875 66.1002 63.2875 65.1002 63.2875 64.0002C63.2875 62.8002 62.3875 61.9002 61.1875 61.9002Z"
        fill="white" />
    <path
        d="M65.625 39.8438C65.625 39.4591 65.2328 39.0745 64.6446 38.9784L62.7819 38.6899C62.2917 38.5938 61.7034 38.113 61.7034 37.6322L61.5074 35.8053C61.4093 35.3245 61.0172 34.8438 60.625 34.8438C60.2328 34.8438 59.8407 35.2284 59.7426 35.8053L59.5466 37.6322C59.4485 38.113 58.9583 38.6899 58.4681 38.6899L56.6054 38.9784C56.1152 39.0745 55.625 39.4591 55.625 39.8438C55.625 40.2284 56.0172 40.613 56.6054 40.7091L58.4681 40.9976C58.9583 41.0938 59.5466 41.5745 59.5466 42.0553L59.8407 43.8822C59.9387 44.363 60.3309 44.8438 60.723 44.8438C61.1152 44.8438 61.5074 44.4591 61.5074 43.8822L61.8015 41.863C61.8995 41.3822 62.3897 40.9014 62.8799 40.8053L64.6446 40.7091C65.2328 40.5168 65.625 40.1322 65.625 39.8438Z"
        fill="white" />
    <path
        d="M81 82C81 81.6154 80.6078 81.2308 80.0196 81.1346L78.1569 80.8462C77.6667 80.75 77.0784 80.2692 77.0784 79.7885L76.8824 77.9615C76.7843 77.4808 76.3922 77 76 77C75.6078 77 75.2157 77.3846 75.1176 77.9615L74.9216 79.7885C74.8235 80.2692 74.3333 80.8462 73.8431 80.8462L71.9804 81.1346C71.4902 81.2308 71 81.6154 71 82C71 82.3846 71.3922 82.7692 71.9804 82.8654L73.8431 83.1538C74.3333 83.25 74.9216 83.7308 74.9216 84.2115L75.2157 86.0385C75.3137 86.5192 75.7059 87 76.098 87C76.4902 87 76.8824 86.6154 76.8824 86.0385L77.1765 84.0192C77.2745 83.5385 77.7647 83.0577 78.2549 82.9615L80.0196 82.8654C80.6078 82.6731 81 82.2885 81 82Z"
        fill="white" />
    <path
        d="M99.5052 60.9925L92.2956 62.8218L89.1751 50.1244C84.3329 30.6478 65.1791 18.4884 46.4558 23.1155C27.7325 27.7425 16.3264 47.3266 21.1686 66.9108L24.2892 79.6082L17.0796 81.4375L13.9591 68.7401C8.0408 45.1745 21.8143 21.3938 44.6265 15.7983C67.3312 10.2028 90.574 24.7295 96.3846 48.1875L99.5052 60.9925Z"
        fill="#415E6D" />
    <path opacity="0.5"
        d="M87.4534 37.7501C87.023 37.7501 86.7002 37.5349 86.485 37.2121C78.4146 22.9006 61.7358 15.5835 46.133 19.3496C44.1961 19.7801 42.3668 20.4257 40.5376 21.1789C39.9995 21.3941 39.3539 21.1789 39.1387 20.6409C38.9235 20.1029 39.1387 19.4572 39.6767 19.242C41.6136 18.3812 43.5505 17.7356 45.595 17.3051C62.1662 13.2161 79.8134 21.0713 88.4219 36.1361C88.7447 36.6741 88.5295 37.3197 87.9914 37.6425C87.7762 37.7501 87.6686 37.7501 87.4534 37.7501Z"
        fill="white" />
    <path opacity="0.5"
        d="M18.5861 45.2831C18.4785 45.2831 18.3709 45.2831 18.2633 45.1755C17.7253 44.9603 17.4025 44.3146 17.6177 43.7766C19.0166 39.2572 21.2763 35.1682 24.2892 31.6172C24.7196 31.1868 25.3653 31.0792 25.7957 31.5096C26.2261 31.94 26.3337 32.5857 25.9033 33.1237C23.1056 36.4594 21.0611 40.3332 19.6622 44.5298C19.447 44.9603 19.0166 45.2831 18.5861 45.2831Z"
        fill="white" />
    <path
        d="M16.6493 81.8683C16.1113 81.8683 15.6808 81.5455 15.5732 81.0075L12.4527 68.3101C6.53439 44.2065 20.6307 19.9953 44.0886 14.1846C47.4244 13.3238 50.8677 13.001 54.2035 13.001C74.5409 13.001 92.1881 27.2049 97.2455 47.4346L100.366 60.1321C100.474 60.4549 100.366 60.6701 100.258 60.9929C100.151 61.2081 99.8281 61.4233 99.6129 61.5309L92.2957 63.3602C91.7577 63.4678 91.1121 63.145 91.0045 62.607L87.8839 49.9096C83.9025 33.8764 70.129 22.7931 54.2035 22.7931C51.621 22.7931 48.9308 23.1159 46.3483 23.7615C37.5247 25.9136 30.0999 31.5091 25.4729 39.5795C20.8459 47.4346 19.5546 56.9039 21.8143 66.0504L24.9349 78.7478C25.0425 79.0706 24.9349 79.2858 24.8273 79.6086C24.7197 79.8238 24.3969 80.039 24.1816 80.1466L16.8645 81.8683C16.7569 81.8683 16.6493 81.8683 16.6493 81.8683ZM54.2035 15.1531C50.9753 15.1531 47.7472 15.5835 44.519 16.3367C22.3523 21.8246 8.7941 44.9597 14.4972 67.8796L17.4025 79.501L22.5676 78.2097L19.6622 66.5884C17.2949 56.9039 18.6938 46.8966 23.536 38.2882C28.4858 29.7874 36.341 23.7615 45.7027 21.5018C48.3928 20.8562 51.2981 20.5333 54.0959 20.5333C70.9899 20.5333 85.6242 32.3699 89.8208 49.2639L92.8337 60.8853L97.9988 59.594L95.0934 47.9727C90.3588 28.6037 73.4648 15.1531 54.2035 15.1531Z"
        fill="#284049" />
    <path
        d="M35.5877 103.174C25.15 105.757 14.7123 99.408 12.1298 88.9703C9.54725 78.5326 15.896 68.0949 26.3337 65.5123"
        fill="#E11560" />
    <path
        d="M12.1294 80.5782C12.1294 80.4706 12.1294 80.2554 12.0218 80.1478C11.3762 82.9456 11.3762 85.9585 12.1294 88.9715C14.7119 99.4092 25.1496 105.65 35.5873 103.175L33.6504 95.105C23.966 96.5038 14.6043 90.3703 12.1294 80.5782Z"
        fill="#B1104B" />
    <path
        d="M30.8532 104.789C27.087 104.789 23.4285 103.82 20.0927 101.883C15.3581 99.0856 11.9147 94.5662 10.6235 89.2935C7.82572 78.3178 14.7124 67.2344 25.9034 64.5443C26.4414 64.4367 27.087 64.7595 27.1946 65.2975C27.3023 65.8356 26.9794 66.4812 26.4414 66.5888C16.4341 68.9561 10.3006 78.9634 12.7756 88.7555C13.9592 93.4901 16.9722 97.4715 21.2764 100.054C25.5806 102.529 30.5304 103.282 35.3726 102.206C35.9107 102.099 36.5563 102.421 36.6639 102.959C36.7715 103.497 36.4487 104.143 35.9107 104.251C34.189 104.573 32.4673 104.789 30.8532 104.789Z"
        fill="#A21146" />
    <path
        d="M43.2277 98.0094C44.0886 101.453 42.5821 104.789 39.7844 105.542C37.0942 106.187 34.0813 103.928 33.2205 100.484L25.5805 69.494C24.7196 66.0507 26.2261 62.7149 29.0239 61.9617C31.714 61.316 34.7269 63.5757 35.5878 67.0191L43.2277 98.0094Z"
        fill="#415E6D" />
    <path
        d="M38.6002 106.618C35.5872 106.618 32.7895 104.035 31.9286 100.592L24.1811 69.3861C23.7507 67.4492 23.8583 65.5123 24.6115 63.8983C25.3647 62.1766 26.7636 60.9929 28.4853 60.5625C28.9157 60.3473 29.3461 60.3473 29.7765 60.3473C32.7895 60.3473 35.5872 62.9298 36.4481 66.3732L44.1956 97.5787C44.6261 99.5156 44.5184 101.452 43.7652 103.067C43.012 104.788 41.6131 105.972 39.8914 106.402C39.461 106.618 39.0306 106.618 38.6002 106.618ZM29.7765 62.4994C29.5613 62.4994 29.2385 62.4994 29.0233 62.607C28.0549 62.8222 27.194 63.5754 26.656 64.7591C26.118 65.9428 26.0104 67.4492 26.3332 68.8481L34.0807 100.054C34.7264 102.851 37.2013 104.896 39.3534 104.358C40.3218 104.143 41.1827 103.389 41.7207 102.206C42.2587 101.022 42.3663 99.5156 42.0435 98.1167L34.296 66.9112C33.6503 64.4363 31.7134 62.4994 29.7765 62.4994Z"
        fill="#284049" />
    <path
        d="M94.1248 88.7556C104.563 86.1731 110.804 75.7353 108.329 65.2976C105.746 54.8599 95.3085 48.6188 84.8708 51.0938"
        fill="#E11560" />
    <path
        d="M93.1564 80.3618L85.8392 50.7704C85.1936 50.878 84.548 50.9856 83.9023 51.2008L93.1564 88.8626C103.379 86.3877 109.728 76.0576 107.36 65.8351C105.854 72.6142 100.474 78.5325 93.1564 80.3618Z"
        fill="#B1104B" />
    <path
        d="M94.1247 89.4003C93.5867 89.4003 93.1563 89.0775 93.0487 88.5395C92.9411 88.0015 93.2639 87.3558 93.8019 87.2482C103.702 84.8809 109.727 75.0888 107.253 65.4044C106.069 60.6697 103.056 56.796 98.8594 54.321C94.6628 51.8461 89.7129 51.0929 84.9783 52.2765C84.4403 52.3841 83.7946 52.0613 83.687 51.5233C83.5794 50.9853 83.9022 50.3396 84.4403 50.232C89.8205 48.9408 95.3084 49.8016 100.043 52.5993C104.778 55.3971 108.113 59.8089 109.405 65.0816C112.095 75.8421 105.423 86.8178 94.3399 89.5079C94.3399 89.4003 94.2323 89.4003 94.1247 89.4003Z"
        fill="#A11146" />
    <path
        d="M84.9784 87.6793C85.8392 91.1226 88.7445 93.3823 91.5423 92.7367C94.2324 92.0911 95.8465 88.6477 94.9856 85.2043L87.3457 54.214C86.4848 50.7707 83.5795 48.511 80.7818 49.1566C78.0916 49.8022 76.4776 53.2456 77.3384 56.689L84.9784 87.6793Z"
        fill="#415E6D" />
    <path
        d="M90.2506 93.7049C87.2377 93.7049 84.4399 91.1224 83.5791 87.679L75.8315 56.4735C74.8631 52.3845 76.6924 48.4031 80.1357 47.6499C80.5662 47.4347 80.9966 47.4347 81.427 47.4347C84.4399 47.4347 87.2377 50.0172 88.0985 53.4606L95.8461 84.6661C96.8145 88.7551 94.9853 92.7365 91.5419 93.4897C91.1115 93.7049 90.681 93.7049 90.2506 93.7049ZM81.427 49.5868C81.2118 49.5868 80.889 49.5868 80.6738 49.6944C78.5217 50.2324 77.338 53.1378 77.9836 55.9355L85.7312 87.141C86.3768 89.6159 88.3137 91.5528 90.2506 91.5528C90.4658 91.5528 90.7887 91.5528 91.0039 91.4452C93.156 90.9072 94.3396 88.0019 93.694 85.2041L85.9464 53.9986C85.3008 51.5237 83.3639 49.5868 81.427 49.5868Z"
        fill="#284049" />
    <path opacity="0.5"
        d="M37.3092 91.338C36.7712 91.338 36.3408 91.0152 36.2331 90.4772L33.1126 77.5646C33.005 77.0265 33.3278 76.3809 33.8658 76.2733C34.4039 76.1657 35.0495 76.4885 35.1571 77.0265L38.2776 89.9392C38.3853 90.4772 38.0624 91.1228 37.5244 91.2304C37.4168 91.338 37.4168 91.338 37.3092 91.338Z"
        fill="white" />
    <path opacity="0.5"
        d="M32.6822 73.6907C32.1442 73.6907 31.7137 73.3679 31.6061 72.8299L29.9921 66.266C29.8844 65.728 30.2073 65.0823 30.7453 64.9747C31.2833 64.8671 31.9289 65.1899 32.0366 65.728L33.6506 72.2919C33.7582 72.8299 33.4354 73.4755 32.8974 73.5831C32.7898 73.6907 32.6822 73.6907 32.6822 73.6907Z"
        fill="white" />
    <path opacity="0.5"
        d="M88.9597 77.4559C88.4217 77.4559 87.9912 77.133 87.8836 76.595L82.2882 53.5675C82.1806 53.0295 82.5034 52.3838 83.0414 52.2762C83.5794 52.1686 84.2251 52.4914 84.3327 53.0295L89.9281 76.057C90.0357 76.595 89.7129 77.2406 89.1749 77.3483C89.0673 77.4559 89.0673 77.4559 88.9597 77.4559Z"
        fill="white" />
    <path opacity="0.5"
        d="M102.948 64.7585C102.518 64.7585 102.195 64.5433 101.98 64.1129C98.9671 57.9794 92.2956 56.2577 92.1879 56.2577C91.6499 56.1501 91.2195 55.5045 91.4347 54.9664C91.5423 54.4284 92.1879 53.998 92.726 54.2132C93.0488 54.3208 100.581 56.2577 103.917 63.2521C104.132 63.7901 103.917 64.4357 103.379 64.6509C103.271 64.7585 103.164 64.7585 102.948 64.7585Z"
        fill="white" />
    <path
        d="M108 54.0524C108 53.6362 107.586 53.22 106.966 53.116L102 52.2836C101.483 52.1796 100.862 51.6593 100.759 51.0351L99.931 46.0408C99.8276 45.5206 99.4138 45.0004 99 45.0004C98.5862 45.0004 98.1724 45.4166 98.069 46.0408L97.2414 51.0351C97.1379 51.5553 96.6207 52.1796 96 52.2836L91.0345 53.116C90.5172 53.22 90 53.6362 90 54.0524C90 54.4686 90.4138 54.8848 91.0345 54.9888L95.8965 55.6131C96.4138 55.7171 97.0345 56.2374 97.1379 56.7576L98.069 61.9599C98.1724 62.4801 98.5862 63.0004 99 63.0004C99.4138 63.0004 99.8276 62.5842 99.931 61.9599L100.862 56.6535C100.966 56.1333 101.483 55.6131 102.103 55.509L106.966 54.8848C107.586 54.9888 108 54.4686 108 54.0524Z"
        fill="white" />
    <path
        d="M15.625 25.8438C15.625 25.4591 15.2328 25.0745 14.6446 24.9784L12.7819 24.6899C12.2917 24.5938 11.7034 24.113 11.7034 23.6322L11.5074 21.8053C11.4093 21.3245 11.0172 20.8438 10.625 20.8438C10.2328 20.8438 9.84069 21.2284 9.74265 21.8053L9.54657 23.6322C9.44853 24.113 8.95833 24.6899 8.46814 24.6899L6.60539 24.9784C6.1152 25.0745 5.625 25.4591 5.625 25.8438C5.625 26.2284 6.01716 26.613 6.60539 26.7091L8.46814 26.9976C8.95833 27.0938 9.54657 27.5745 9.54657 28.0553L9.84069 29.8822C9.93873 30.363 10.3309 30.8438 10.723 30.8438C11.1152 30.8438 11.5074 30.4591 11.5074 29.8822L11.8015 27.863C11.8995 27.3822 12.3897 26.9014 12.8799 26.8053L14.6446 26.7091C15.2328 26.5168 15.625 26.1322 15.625 25.8438Z"
        fill="white" />
</svg>
