<svg width="51" height="51" viewBox="0 0 51 51" fill="none" xmlns="http://www.w3.org/2000/svg">
    <g clip-path="url(#clip0_1_4865)">
        <path opacity="0.1"
            d="M9.14806 40.5876C9.94082 40.5876 10.5835 39.945 10.5835 39.1522C10.5835 38.3595 9.94082 37.7168 9.14806 37.7168C8.3553 37.7168 7.71265 38.3595 7.71265 39.1522C7.71265 39.945 8.3553 40.5876 9.14806 40.5876Z"
            fill="#145C99" />
        <path opacity="0.15"
            d="M3.76034 31.2738C4.72108 31.2738 5.49992 30.495 5.49992 29.5343C5.49992 28.5735 4.72108 27.7947 3.76034 27.7947C2.79959 27.7947 2.02075 28.5735 2.02075 29.5343C2.02075 30.495 2.79959 31.2738 3.76034 31.2738Z"
            fill="#145C99" />
        <path opacity="0.2"
            d="M3.76038 20.4324C4.86495 20.4324 5.76038 19.5369 5.76038 18.4324C5.76038 17.3278 4.86495 16.4324 3.76038 16.4324C2.65581 16.4324 1.76038 17.3278 1.76038 18.4324C1.76038 19.5369 2.65581 20.4324 3.76038 20.4324Z"
            fill="#145C99" />
        <path opacity="0.25"
            d="M9.31047 11.0787C10.5589 11.0787 11.5709 10.0667 11.5709 8.81828C11.5709 7.56988 10.5589 6.55786 9.31047 6.55786C8.06207 6.55786 7.05005 7.56988 7.05005 8.81828C7.05005 10.0667 8.06207 11.0787 9.31047 11.0787Z"
            fill="#145C99" />
        <path opacity="0.3"
            d="M18.9272 5.87414C20.3677 5.87414 21.5355 4.70635 21.5355 3.2658C21.5355 1.82526 20.3677 0.657471 18.9272 0.657471C17.4866 0.657471 16.3188 1.82526 16.3188 3.2658C16.3188 4.70635 17.4866 5.87414 18.9272 5.87414Z"
            fill="#145C99" />
        <path opacity="0.45"
            d="M30.0291 6.22256C31.6618 6.22256 32.9854 4.899 32.9854 3.26631C32.9854 1.63362 31.6618 0.310059 30.0291 0.310059C28.3964 0.310059 27.0729 1.63362 27.0729 3.26631C27.0729 4.899 28.3964 6.22256 30.0291 6.22256Z"
            fill="#145C99" />
        <path opacity="0.4"
            d="M39.6437 12.0812C41.4456 12.0812 42.9062 10.6205 42.9062 8.81865C42.9062 7.01682 41.4456 5.55615 39.6437 5.55615C37.8419 5.55615 36.3812 7.01682 36.3812 8.81865C36.3812 10.6205 37.8419 12.0812 39.6437 12.0812Z"
            fill="#145C99" />
        <path opacity="0.5"
            d="M45.1957 21.8546C47.1897 21.8546 48.8062 20.2382 48.8062 18.2442C48.8062 16.2502 47.1897 14.6338 45.1957 14.6338C43.2018 14.6338 41.5853 16.2502 41.5853 18.2442C41.5853 20.2382 43.2018 21.8546 45.1957 21.8546Z"
            fill="#145C99" />
        <path opacity="0.6"
            d="M45.196 33.5792C47.4293 33.5792 49.2397 31.7688 49.2397 29.5354C49.2397 27.3021 47.4293 25.4917 45.196 25.4917C42.9627 25.4917 41.1522 27.3021 41.1522 29.5354C41.1522 31.7688 42.9627 33.5792 45.196 33.5792Z"
            fill="#145C99" />
        <path opacity="0.7"
            d="M39.6437 43.5433C42.0692 43.5433 44.0354 41.5771 44.0354 39.1517C44.0354 36.7262 42.0692 34.76 39.6437 34.76C37.2183 34.76 35.2521 36.7262 35.2521 39.1517C35.2521 41.5771 37.2183 43.5433 39.6437 43.5433Z"
            fill="#145C99" />
        <path opacity="0.8"
            d="M30.0291 49.5309C32.695 49.5309 34.8562 47.3697 34.8562 44.7038C34.8562 42.0379 32.695 39.8767 30.0291 39.8767C27.3632 39.8767 25.202 42.0379 25.202 44.7038C25.202 47.3697 27.3632 49.5309 30.0291 49.5309Z"
            fill="#145C99" />
        <path
            d="M18.9271 49.9657C21.8335 49.9657 24.1896 47.6096 24.1896 44.7032C24.1896 41.7968 21.8335 39.4407 18.9271 39.4407C16.0207 39.4407 13.6646 41.7968 13.6646 44.7032C13.6646 47.6096 16.0207 49.9657 18.9271 49.9657Z"
            fill="#145C99" />
    </g>
    <defs>
        <clipPath id="clip0_1_4865">
            <rect width="50" height="50" fill="white" transform="translate(0.5 0.136719)" />
        </clipPath>
    </defs>
</svg>
