<svg width="360" height="158" viewBox="0 0 360 158" fill="none" xmlns="http://www.w3.org/2000/svg">
    <path
        d="M119.575 26.9448H118.901C117.413 26.9448 115.986 26.3536 114.933 25.3012C113.881 24.2488 113.29 22.8214 113.29 21.3331V20.7719C113.29 19.6622 113.619 18.5774 114.236 17.6548C114.852 16.7322 115.729 16.0131 116.754 15.5885C117.779 15.1638 118.908 15.0527 119.996 15.2691C121.084 15.4856 122.084 16.0198 122.869 16.8044C123.814 17.5152 124.513 18.5033 124.869 19.6308C125.224 20.7583 125.219 21.9687 124.853 23.0929C124.489 24.208 123.784 25.1803 122.836 25.8717C121.889 26.5631 120.748 26.9386 119.575 26.9448Z"
        fill="black" />
    <path
        d="M111.795 88.32L61.5076 99.0089L57.0707 78.1345C56.7765 76.7505 55.9056 75.5482 54.6498 74.7923C53.3939 74.0363 51.8558 73.7886 50.374 74.1036L5.67427 83.6048C4.78872 83.7927 3.95758 84.1746 3.24945 84.7189C2.54131 85.2633 1.97649 85.9545 1.6016 86.7356C1.2267 87.5167 1.05249 88.3652 1.09332 89.2111C1.13416 90.057 1.38887 90.8761 1.83645 91.6007L18.7264 119.011L14.4455 150.921C14.3313 151.765 14.4318 152.617 14.7385 153.407C15.0453 154.196 15.5495 154.9 16.2097 155.461C16.8699 156.022 17.667 156.424 18.5354 156.633C19.4037 156.843 20.3183 156.854 21.2037 156.665L121.778 135.287C123.26 134.972 124.564 134.12 125.404 132.919C126.244 131.718 126.55 130.265 126.256 128.881L118.491 92.351C118.197 90.9669 117.326 89.7647 116.071 89.0087C114.815 88.2528 113.277 88.005 111.795 88.32Z"
        fill="#D59733" />
    <path
        d="M115.465 78.4173L66.0621 88.9181L61.3952 66.9617C61.0857 65.5059 60.2106 64.2326 58.9624 63.422C57.7142 62.6114 56.1951 62.3299 54.7393 62.6393L10.826 71.9734C9.95601 72.1579 9.14239 72.5467 8.45228 73.1077C7.76216 73.6686 7.21535 74.3856 6.85695 75.1996C6.49856 76.0135 6.33886 76.901 6.39105 77.7888C6.44323 78.6766 6.7058 79.5392 7.15708 80.3055L24.1876 109.293L20.4197 142.701C20.3192 143.585 20.4302 144.48 20.7436 145.312C21.057 146.144 21.5639 146.89 22.2223 147.488C22.8808 148.086 23.672 148.518 24.5306 148.75C25.3892 148.982 26.2906 149.006 27.1604 148.821L125.965 127.819C127.421 127.51 128.694 126.635 129.505 125.387C130.316 124.138 130.597 122.619 130.288 121.163L122.12 82.7397C121.811 81.2839 120.936 80.0106 119.688 79.2C118.439 78.3894 116.92 78.1079 115.465 78.4173Z"
        fill="#FFCB5B" />
    <path
        d="M340.871 117.265L358.088 88.3169C358.544 87.5517 358.808 86.6893 358.858 85.801C358.908 84.9127 358.742 84.024 358.374 83.2081C358.007 82.3922 357.448 81.6727 356.744 81.1088C356.04 80.5449 355.211 80.1528 354.326 79.965L309.626 70.4638C308.144 70.1488 306.6 70.425 305.333 71.2317C304.067 72.0384 303.181 73.3094 302.872 74.7652L298.205 96.7217L247.918 86.0329C246.436 85.7179 244.892 85.9941 243.625 86.8008C242.359 87.6075 241.473 88.8785 241.164 90.3343L232.997 128.758C232.687 130.214 232.979 131.735 233.808 132.987C234.637 134.24 235.935 135.12 237.417 135.435L337.991 156.813C338.877 157.001 339.793 156.98 340.666 156.751C341.538 156.522 342.342 156.092 343.009 155.497C343.677 154.901 344.189 154.156 344.505 153.324C344.821 152.493 344.931 151.597 344.825 150.713L340.871 117.265Z"
        fill="#D59733" />
    <path
        d="M337.075 109.292L354.106 80.3045C354.557 79.5382 354.819 78.6755 354.872 77.7877C354.924 76.8999 354.764 76.0124 354.406 75.1985C354.047 74.3846 353.5 73.6676 352.81 73.1066C352.12 72.5457 351.307 72.1569 350.437 71.9723L306.523 62.6383C305.068 62.3288 303.548 62.6104 302.3 63.421C301.052 64.2316 300.177 65.5048 299.867 66.9606L295.2 88.9171L245.798 78.4163C244.342 78.1068 242.823 78.3884 241.575 79.199C240.327 80.0096 239.452 81.2828 239.142 82.7386L230.975 121.162C230.665 122.618 230.947 124.137 231.758 125.386C232.568 126.634 233.841 127.509 235.297 127.818L334.102 148.82C334.972 149.005 335.873 148.981 336.732 148.749C337.591 148.517 338.382 148.085 339.04 147.487C339.699 146.889 340.206 146.143 340.519 145.311C340.832 144.479 340.943 143.584 340.843 142.7L337.075 109.292Z"
        fill="#FFCB5B" />
    <path
        d="M51.7803 33.8435C51.7803 29.4576 54.7961 25.663 59.0854 24.7478C79.6935 20.3504 139.462 8.40552 180.631 8.40552C221.801 8.40552 281.569 20.3504 302.177 24.7478C306.466 25.663 309.482 29.4576 309.482 33.8435V115.11C309.482 121.151 303.9 125.66 297.986 124.427C274.353 119.502 219.292 108.969 180.631 108.969C141.97 108.969 86.9089 119.502 63.2762 124.427C57.3619 125.66 51.7803 121.151 51.7803 115.11V33.8435Z"
        fill="#D59733" />
    <path
        d="M53.6615 25.4125C53.6615 21.0379 56.6673 17.249 60.9428 16.3236C81.3269 11.9118 140.118 -0.000732422 180.631 -0.000732422C221.145 -0.000732422 279.936 11.9118 300.32 16.3236C304.595 17.249 307.601 21.0379 307.601 25.4125V106.664C307.601 112.718 301.997 117.23 296.074 115.979C272.677 111.036 218.619 100.562 180.631 100.562C142.643 100.562 88.586 111.036 65.1892 115.979C59.2661 117.23 53.6615 112.718 53.6615 106.664V25.4125Z"
        fill="#FFCB5B" />
</svg>
