<svg width="20" height="20" viewBox="0 0 20 20" fill="none" xmlns="http://www.w3.org/2000/svg">
    <g clip-path="url(#clip0_1_7425)">
        <path
            d="M10 0.625C4.825 0.625 0.625 4.375 0.625 9.0625C0.639015 10.1895 0.890636 11.3008 1.36343 12.324C1.83622 13.3471 2.51954 14.259 3.36875 15L3.125 18.85C3.12064 18.9408 3.14144 19.0311 3.18511 19.1108C3.22877 19.1905 3.2936 19.2567 3.37246 19.3019C3.45131 19.3472 3.54113 19.3698 3.63201 19.3672C3.72289 19.3647 3.8113 19.3371 3.8875 19.2875L7.16875 17.1C8.08938 17.364 9.04227 17.4986 10 17.5C15.175 17.5 19.375 13.75 19.375 9.0625C19.375 4.375 15.175 0.625 10 0.625ZM9.5875 14.6125C9.31732 14.6113 9.05356 14.5301 8.82943 14.3792C8.6053 14.2283 8.43083 14.0145 8.32801 13.7647C8.22519 13.5148 8.19861 13.2401 8.25162 12.9752C8.30463 12.7103 8.43487 12.467 8.62591 12.2759C8.81696 12.0849 9.06027 11.9546 9.3252 11.9016C9.59013 11.8486 9.86482 11.8752 10.1147 11.978C10.3645 12.0808 10.5783 12.2553 10.7292 12.4794C10.8801 12.7036 10.9613 12.9673 10.9625 13.2375C10.9633 13.4183 10.9283 13.5975 10.8595 13.7647C10.7907 13.9319 10.6895 14.0838 10.5616 14.2116C10.4338 14.3395 10.2819 14.4407 10.1147 14.5095C9.94747 14.5783 9.7683 14.6133 9.5875 14.6125ZM11.625 9.1375C11.075 9.575 10.7875 9.825 10.7875 10.2563C10.7875 10.5679 10.6637 10.8667 10.4433 11.0871C10.223 11.3075 9.92413 11.4313 9.6125 11.4313C9.30087 11.4313 9.002 11.3075 8.78165 11.0871C8.56129 10.8667 8.4375 10.5679 8.4375 10.2563C8.4375 8.75 9.375 7.9875 10.0625 7.43125C10.4938 7.08125 10.75 6.85625 10.75 6.64375C10.75 6.43125 10.75 5.90625 9.5875 5.90625C9.15012 5.90132 8.71911 6.01123 8.3375 6.225C8.15007 6.34393 7.93434 6.41081 7.7125 6.41875C7.41413 6.41875 7.12798 6.30022 6.917 6.08924C6.70603 5.87827 6.5875 5.59212 6.5875 5.29375C6.59058 5.0851 6.65038 4.88122 6.76048 4.70396C6.87058 4.5267 7.02683 4.38274 7.2125 4.2875C7.95995 3.81651 8.82922 3.57529 9.7125 3.59375C11.7688 3.59375 13.15 4.79375 13.15 6.58125C13.1295 7.10162 12.9792 7.60861 12.7129 8.05613C12.4465 8.50365 12.0726 8.87752 11.625 9.14375V9.1375Z"
            fill="#145C99" />
    </g>
    <defs>
        <clipPath id="clip0_1_7425">
            <rect width="20" height="20" fill="white" />
        </clipPath>
    </defs>
</svg>
