<svg width="120" height="120" viewBox="0 0 120 120" fill="none" xmlns="http://www.w3.org/2000/svg">
    <path
        d="M95 15.052C95 14.6358 94.5862 14.2197 93.9655 14.1156L89 13.2832C88.4828 13.1792 87.8621 12.659 87.7586 12.0347L86.931 7.04046C86.8276 6.52023 86.4138 6 86 6C85.5862 6 85.1724 6.41618 85.069 7.04046L84.2414 12.0347C84.1379 12.5549 83.6207 13.1792 83 13.2832L78.0345 14.1156C77.5172 14.2197 77 14.6358 77 15.052C77 15.4682 77.4138 15.8844 78.0345 15.9884L82.8965 16.6127C83.4138 16.7168 84.0345 17.237 84.1379 17.7572L85.069 22.9595C85.1724 23.4798 85.5862 24 86 24C86.4138 24 86.8276 23.5838 86.931 22.9595L87.8621 17.6532C87.9655 17.1329 88.4828 16.6127 89.1034 16.5087L93.9655 15.8844C94.5862 15.9884 95 15.4682 95 15.052Z"
        fill="white" />
</svg>
