<svg width="90" height="100" viewBox="0 0 90 100" fill="none" xmlns="http://www.w3.org/2000/svg">
    <path
        d="M88.5531 26.8062C89.4019 23.4019 87.492 19.3594 84.3088 17.87L51.5218 2.01893C48.3386 0.529565 43.1393 0.423182 40.0622 1.91254L5.78969 17.87C2.60648 19.3594 0.696561 23.4019 1.54542 26.8062L13.1111 74.3594C13.9599 77.7636 17.037 82.1253 19.9019 84.0402L40.5928 97.5508C43.5637 99.4657 48.2325 99.3594 51.2034 97.4445L70.4088 84.1466C73.2737 82.1253 76.3508 77.7636 77.1996 74.3594L88.5531 26.8062Z"
        fill="#1EA1DB" />
    <path
        d="M81.4438 28.5105C81.9743 26.2765 80.701 23.5105 78.5789 22.5531L49.5056 8.29778C47.3835 7.23395 43.988 7.23395 41.8659 8.1914L11.5193 22.5531C9.39719 23.5105 8.1239 26.2765 8.65444 28.5105L18.7346 71.702C19.2651 73.9361 21.2812 76.9148 23.1911 78.1914L42.1842 90.7446C44.0941 92.0212 47.2774 92.0212 49.1873 90.6382L66.9071 78.2978C68.8171 76.9148 70.8331 74.0425 71.3636 71.702L81.4438 28.5105Z"
        fill="#D2ECF8" />
    <path
        d="M8.97276 30.2127C9.5033 29.0425 10.3522 28.085 11.4132 27.5531L41.7598 13.2978C43.8819 12.3403 47.2773 12.3403 49.3995 13.4042L78.4728 27.5531C79.5338 28.085 80.3827 29.0425 80.9132 30.2127L81.3377 28.5105C81.8682 26.2765 80.5949 23.5105 78.4728 22.5531L49.5056 8.29778C47.3835 7.23395 43.988 7.23395 41.8659 8.1914L11.5193 22.5531C9.39719 23.5105 8.1239 26.2765 8.65444 28.5105L8.97276 30.2127Z"
        fill="#7BC7EA" />
    <path
        d="M46.0038 92.5508H44.9428C43.4573 92.5508 42.6084 92.2316 41.5473 91.4869L22.5542 78.9337C20.326 77.4444 18.2038 74.3593 17.5672 71.8061L7.59314 28.721C6.9565 25.955 8.5481 22.7635 11.0947 21.5933L41.4412 7.338C42.6084 6.80609 44.0939 6.48694 45.6855 6.48694C47.2771 6.48694 48.8687 6.80609 50.0359 7.338L79.1092 21.4869C81.6557 22.7635 83.1413 25.955 82.5046 28.721L72.4245 71.9125C71.7878 74.4657 69.6657 77.6572 67.5435 79.1465L49.8237 91.4869C48.6565 92.2316 47.5954 92.5508 46.0038 92.5508ZM45.5794 8.6146C44.3061 8.6146 43.139 8.82736 42.2901 9.2529L11.9435 23.5082C10.2458 24.2529 9.18475 26.4869 9.60917 28.2954L19.6893 71.4869C20.1138 73.5082 22.0237 76.1678 23.7214 77.338L42.7145 89.8912C43.4573 90.4231 44.5183 90.6359 45.5794 90.6359C46.7466 90.6359 47.8077 90.3167 48.5504 89.7848L66.2703 77.4444C67.968 76.2742 69.7718 73.5082 70.3023 71.4869L80.3825 28.2954C80.8069 26.4869 79.7458 24.2529 78.0481 23.5082L49.0809 9.2529C48.126 8.82736 46.8527 8.6146 45.5794 8.6146Z"
        fill="#145C99" />
    <path
        d="M47.0655 99.9993H44.9434C42.8212 99.9993 41.4418 99.4674 39.9563 98.4035L19.2655 84.8929C16.0823 82.8716 12.8991 78.1908 11.9441 74.5737L0.484563 27.0205C-0.470399 23.0844 1.75785 18.6163 5.36548 16.9142L39.638 0.956714C41.2296 0.212033 43.7762 -0.000732422 46.0044 -0.000732422C48.3388 -0.000732422 50.3548 0.318417 52.0525 1.0631L84.7334 16.9142C88.3411 18.6163 90.4632 23.1908 89.5082 27.1269L78.0487 74.5737C77.1998 78.1908 73.9105 82.8716 70.8334 84.9993L51.6281 98.2971C50.0365 99.361 49.2937 99.9993 47.0655 99.9993ZM46.0044 2.12693C43.9884 2.12693 41.8662 2.33969 40.4869 2.97799L6.21433 18.9354C3.56166 20.212 1.86395 23.7227 2.50059 26.595L14.0662 74.1482C14.809 77.3397 17.78 81.3822 20.4327 83.1908L41.1235 96.7014C42.2907 97.4461 43.9884 97.978 45.6861 97.978C47.4899 97.978 49.2937 97.4461 50.4609 96.595L69.6663 83.2971C72.3189 81.4886 75.1838 77.2333 76.0327 74.1482L87.4922 26.595C88.235 23.7227 86.5372 20.1057 83.7785 18.8291L51.0976 2.97799C49.7182 2.33969 48.0205 2.12693 46.0044 2.12693Z"
        fill="#145C99" />
    <path
        d="M30.0877 77.7695C29.8755 77.7695 29.6632 77.6631 29.451 77.5567L25.5251 75.0035C24.1457 74.0461 22.7663 72.1312 22.3419 70.5355L16.7182 47.1312C16.6121 46.5993 16.9304 45.961 17.461 45.8546C17.9915 45.7482 18.6281 46.0674 18.7342 46.5993L24.3579 70.0036C24.5701 71.0674 25.6312 72.5567 26.5861 73.195L30.5121 75.7482C31.0426 76.0674 31.1487 76.7057 30.8304 77.2376C30.7243 77.5567 30.406 77.7695 30.0877 77.7695Z"
        fill="#7BC7EA" />
    <path
        d="M69.5602 26.4938C69.5602 26.0683 69.1358 25.6428 68.4992 25.5364L63.4061 24.6853C62.8755 24.5789 62.2389 24.047 62.1328 23.4087L61.2839 18.3024C61.1778 17.7704 60.7534 17.2385 60.329 17.2385C59.9045 17.2385 59.4801 17.6641 59.374 18.3024L58.5251 23.4087C58.419 23.9407 57.8885 24.5789 57.2519 24.6853L52.1587 25.5364C51.6282 25.6428 51.0977 26.0683 51.0977 26.4938C51.0977 26.9194 51.5221 27.3449 52.1587 27.4513L57.1457 28.0896C57.6763 28.196 58.3129 28.7279 58.419 29.2598L59.374 34.5789C59.4801 35.1109 59.9045 35.6428 60.329 35.6428C60.7534 35.6428 61.1778 35.2172 61.2839 34.5789L62.2389 29.1534C62.345 28.6215 62.8755 28.0896 63.5122 27.9832L68.4992 27.3449C69.1358 27.3449 69.5602 26.9194 69.5602 26.4938Z"
        fill="#7BC7EA" />
</svg>
