<svg width="120" height="120" viewBox="0 0 120 120" fill="none" xmlns="http://www.w3.org/2000/svg">
    <path
        d="M30.2812 87.8896C28.9688 89.4834 26.5313 89.7646 24.8438 88.5459L19.5937 84.6084C17.9062 83.3896 17.5312 80.9521 18.6562 79.2646L45.375 39.4209C46.5 37.7334 48.8437 37.3584 50.4375 38.5771L60.1875 45.8896C61.875 47.1084 62.1563 49.4521 60.8438 51.0459L30.2812 87.8896Z"
        fill="#EAEAEA" />
    <path
        d="M60.2812 45.7959C60.1875 45.9834 60.0937 46.0771 60 46.2646L29.3437 83.1084C28.0312 84.7021 25.5937 84.9834 23.9062 83.7647L18.6562 79.8271C18.5625 79.7334 18.4687 79.7334 18.4687 79.6397C17.625 81.3272 18.0937 83.3896 19.5937 84.5146L24.8437 88.4522C26.5312 89.6709 28.9687 89.3896 30.2812 87.7959L60.8437 50.9521C62.1562 49.3584 61.9687 47.1084 60.2812 45.7959Z"
        fill="#D4D6D6" />
    <path
        d="M27.4687 90.0459C26.4375 90.0459 25.4062 89.7646 24.5625 89.1084L19.3125 85.1709C17.25 83.6709 16.7812 80.6709 18.1875 78.5146L44.7187 38.8584C45.5625 37.6397 46.9687 36.8896 48.4687 36.8896C49.4062 36.8896 50.3437 37.1709 51.1875 37.8271L60.8437 45.0459C61.875 45.7959 62.4375 46.9209 62.625 48.1396C62.8125 49.3584 62.4375 50.5772 61.5937 51.5147L31.2187 88.2646C30.2812 89.3896 28.9687 90.0459 27.4687 90.0459ZM48.4687 38.7646C47.625 38.7646 46.7812 39.2334 46.3125 39.8896L19.7812 79.6397C18.9375 80.9522 19.2187 82.7334 20.4375 83.6709L25.6875 87.6084C26.1562 87.9834 26.8125 88.1709 27.4687 88.1709C28.4062 88.1709 29.25 87.7959 29.8125 87.1397L60.1875 50.3897C60.6562 49.8271 60.8437 49.0771 60.75 48.4209C60.6562 47.6709 60.2812 47.1084 59.7187 46.6397L49.9687 39.3272C49.5937 38.9522 49.0312 38.7646 48.4687 38.7646Z"
        fill="#284049" />
    <path
        d="M55.875 60.1396C54.4687 61.6396 52.0312 61.9209 50.3437 60.7021L39.0937 52.2647C37.4062 51.0459 36.9375 48.6084 38.0625 46.8272L45.5625 34.8271C46.6875 33.0459 48.8437 32.6709 50.5312 33.8896L64.7812 44.5772C66.4687 45.7959 66.6562 48.0459 65.25 49.6397L55.875 60.1396Z"
        fill="#EAEAEA" />
    <path
        d="M48.5625 30.5146L40.0312 44.2021C41.3438 47.3896 43.5 50.3896 46.5 52.6396C50.25 55.4521 54.6563 56.7647 59.0625 56.5772L68.8125 45.7021L48.5625 30.5146Z"
        fill="#D4D6D6" />
    <path
        d="M52.7813 62.39C51.6563 62.39 50.625 62.015 49.7813 61.4525L38.5313 53.015C36.4688 51.515 35.9063 48.515 37.3125 46.3588L44.7188 34.3588C45.5625 33.0463 46.875 32.2963 48.375 32.2963C49.3125 32.2963 50.25 32.5775 51 33.2338L65.25 43.9213C66.2813 44.6713 66.8438 45.7963 67.0313 47.015C67.125 48.2338 66.75 49.4525 65.9063 50.39L56.5313 60.9838C55.5938 61.8275 54.2813 62.39 52.7813 62.39ZM48.375 34.0775C47.5313 34.0775 46.7813 34.5463 46.3125 35.2963L38.9063 47.2963C38.0625 48.6088 38.4375 50.5775 39.6563 51.515L50.9063 59.9525C51.4688 60.3275 52.125 60.515 52.7813 60.515C53.7188 60.515 54.5625 60.14 55.125 59.4838L64.5 48.89C64.9688 48.3275 65.25 47.6713 65.1563 47.015C65.0625 46.3588 64.6875 45.7025 64.125 45.2338L49.9688 34.64C49.5 34.265 48.9375 34.0775 48.375 34.0775Z"
        fill="#284049" />
    <path
        d="M77.1823 45.9249C83.7828 37.09 81.9715 24.5772 73.1366 17.9767C64.3017 11.3761 51.7889 13.1874 45.1884 22.0223C38.5878 30.8572 40.3991 43.3701 49.234 49.9706C58.0689 56.5711 70.5818 54.7598 77.1823 45.9249Z"
        fill="#64CDFC" />
    <path
        d="M77.1563 37.4518C70.5938 46.2643 58.0313 48.0455 49.2188 41.483C45.1876 38.483 42.6563 34.2643 41.7188 29.6705C40.1251 37.0768 42.8438 45.0455 49.2188 49.9205C58.0313 56.483 70.5938 54.7018 77.1563 45.8893C80.7188 41.108 81.8438 35.2018 80.6251 29.7643C80.0626 32.483 78.9375 35.108 77.1563 37.4518Z"
        fill="#05ABF4" />
    <path
        d="M61.0312 55.3584C56.4375 55.3584 52.125 53.9521 48.4687 51.1396C43.9687 47.7646 41.0625 42.7959 40.2187 37.2646C39.375 31.7334 40.7812 26.1084 44.1562 21.6084C48.1875 16.2646 54.375 13.1709 61.0312 13.1709C65.625 13.1709 69.9375 14.5771 73.5937 17.3896C78.0937 20.7646 81 25.7334 81.8437 31.2646C82.6875 36.7959 81.2812 42.4209 77.9062 46.9209C73.875 52.2646 67.6875 55.3584 61.0312 55.3584ZM61.0312 15.0459C54.9375 15.0459 49.3125 17.8584 45.6562 22.7334C42.5625 26.8584 41.3437 31.9209 42 36.9834C42.75 42.0459 45.375 46.5459 49.5 49.6396C52.875 52.1709 56.8125 53.4834 61.0312 53.4834C67.125 53.4834 72.75 50.6709 76.4062 45.7959C79.5 41.6709 80.7188 36.6084 80.0625 31.5459C79.3125 26.4834 76.6875 21.9834 72.5625 18.8896C69.1875 16.3584 65.25 15.0459 61.0312 15.0459Z"
        fill="#284049" />
    <path
        d="M78.6562 47.8583C77.4375 49.5458 75.0937 49.8271 73.4062 48.6083L43.4062 26.2021C41.7187 24.9833 41.4375 22.6396 42.6562 20.9521C43.875 19.2646 46.2187 18.9833 47.9062 20.2021L77.9062 42.6083C79.5 43.9208 79.875 46.2646 78.6562 47.8583Z"
        fill="#EAEAEA" />
    <path
        d="M78.6563 45.0459C77.4375 46.7334 75.0938 47.0146 73.4063 45.7959L43.4063 23.3896C42.8438 22.9209 42.4688 22.3584 42.1875 21.7959C41.5313 23.2959 42 25.1709 43.4063 26.2021L73.4063 48.6084C75.0938 49.8271 77.4375 49.5459 78.6563 47.8584C79.5 46.7334 79.5938 45.4209 79.125 44.2021C79.0313 44.4834 78.8438 44.7646 78.6563 45.0459Z"
        fill="#D4D6D6" />
    <path
        d="M75.5625 50.6709C74.5312 50.6709 73.5937 50.2959 72.75 49.7334L42.75 26.5771C41.7187 25.8271 41.0625 24.7021 40.9687 23.3896C40.7812 22.0771 41.0625 20.8584 41.8125 19.8271C42.6562 18.6084 44.0625 17.8584 45.5625 17.8584C46.5937 17.8584 47.5312 18.2334 48.375 18.7959L78.375 41.9521C80.4375 43.5459 80.9062 46.5459 79.3125 48.7022C78.4687 49.9209 77.0625 50.6709 75.5625 50.6709ZM45.5625 19.8271C44.7187 19.8271 43.875 20.2959 43.3125 20.9521C42.8437 21.6084 42.6562 22.3584 42.75 23.1084C42.8437 23.8584 43.2187 24.5146 43.875 24.9834L73.875 48.1396C75.0937 49.0771 76.875 48.7959 77.8125 47.5771C78.75 46.2646 78.4687 44.4834 77.25 43.5459L47.25 20.3896C46.7812 20.0146 46.125 19.8271 45.5625 19.8271Z"
        fill="#284049" />
    <path
        d="M33.9375 85.8271C33.2812 86.6709 32.1562 86.8584 31.3125 86.2021L20.0625 77.7646C19.2187 77.1084 19.0312 75.9834 19.6875 75.1396C20.3437 74.2959 21.4687 74.1084 22.3125 74.7646L33.5625 83.2021C34.3125 83.8584 34.5 84.9834 33.9375 85.8271Z"
        fill="#05ABF4" />
    <path
        d="M32.4375 87.5146C31.7812 87.5146 31.2187 87.3271 30.75 86.9521L19.5 78.5146C18.2812 77.5771 18 75.7958 18.9375 74.5771C19.7812 73.3583 21.6562 73.0771 22.875 74.0146L34.125 82.4521C35.3437 83.3896 35.625 85.1708 34.6875 86.3896C34.125 87.1396 33.2812 87.5146 32.4375 87.5146ZM21.1875 75.4208C20.9062 75.4208 20.625 75.5146 20.4375 75.7958C20.1562 76.1708 20.25 76.8271 20.625 77.1083L31.875 85.5458C32.25 85.8271 32.9062 85.7333 33.1875 85.3583C33.4687 84.9833 33.375 84.3271 33 84.0458L21.75 75.6083C21.5625 75.4208 21.375 75.4208 21.1875 75.4208Z"
        fill="#284049" />
    <path
        d="M74.9061 44.6705C74.7186 44.6705 74.5311 44.5767 74.3436 44.483L45.9373 23.5767C45.5623 23.2955 45.4686 22.6392 45.7498 22.2642C46.0311 21.8892 46.6873 21.7955 47.0623 22.0767L75.4686 42.983C75.8436 43.2642 75.9373 43.9205 75.6561 44.2955C75.4686 44.5767 75.1873 44.6705 74.9061 44.6705Z"
        fill="white" />
    <path
        d="M35.8125 60.2338C35.625 60.2338 35.4375 60.14 35.25 60.0463C34.7812 59.765 34.6875 59.2025 34.9688 58.7338L37.0313 55.7338C37.3125 55.265 37.875 55.1713 38.3437 55.4525C38.8125 55.7338 38.9062 56.2963 38.625 56.765L36.5625 59.765C36.375 60.14 36.0937 60.2338 35.8125 60.2338Z"
        fill="white" />
    <path
        d="M25.8748 74.5768C25.6873 74.5768 25.4998 74.483 25.3123 74.3893C24.9373 74.108 24.8436 73.5455 25.1248 73.1705L32.4373 62.483C32.7186 62.0143 33.2811 61.9205 33.7498 62.2018C34.2186 62.483 34.3123 63.0455 34.0311 63.5143L26.7186 74.108C26.4373 74.483 26.1561 74.5768 25.8748 74.5768Z"
        fill="white" />
    <path opacity="0.5"
        d="M76.2188 30.0459C75.8438 30.0459 75.4688 29.7646 75.375 29.3896C74.7188 27.4209 73.6875 25.7334 72.4688 24.2334C72.0938 23.8584 72.1875 23.2021 72.5625 22.9209C72.9375 22.5459 73.5938 22.6396 73.875 23.0146C75.2813 24.6084 76.3125 26.5771 77.0625 28.7334C77.25 29.2021 76.9688 29.7646 76.5 29.9521C76.4063 29.9521 76.3125 30.0459 76.2188 30.0459Z"
        fill="white" />
    <path opacity="0.5"
        d="M69.9375 21.7018C69.75 21.7018 69.5625 21.6081 69.375 21.5143C65.7188 18.9831 60.9375 18.1393 56.9063 19.1706C56.4375 19.2643 55.875 18.9831 55.7813 18.5143C55.6875 18.0456 55.9688 17.4831 56.4375 17.3893C61.0313 16.1706 66.4688 17.2018 70.5 19.9206C70.9688 20.2018 71.0625 20.7643 70.7813 21.2331C70.5 21.5143 70.2188 21.7018 69.9375 21.7018Z"
        fill="white" />
    <path
        d="M103.5 65.1084C97.6875 61.5459 87.6563 61.3584 76.9688 71.2959C72.6563 75.3271 68.625 79.6396 64.6875 83.7646C52.7813 96.4209 42.5625 107.39 30.0938 104.577C26.1563 103.733 23.3438 101.858 21.9375 99.0459C19.2188 93.8896 21.75 87.0459 21.75 86.9521C21.9375 86.4834 21.6563 85.9209 21.1875 85.7334C20.7188 85.5459 20.1563 85.8271 19.9688 86.2959C19.875 86.5771 17.0625 93.9834 20.25 99.9834C22.0313 103.265 25.125 105.421 29.7188 106.452C31.2188 106.733 32.625 106.921 34.0313 106.921C45.5625 106.921 55.125 96.7021 66.0938 85.0771C69.9375 80.9521 73.9688 76.6396 78.2813 72.6084C88.2188 63.4209 97.3125 63.5146 102.563 66.7021C107.25 69.5146 109.313 74.8584 108 80.5771C106.969 84.7021 104.344 87.7021 100.031 89.4834C99.4688 90.3271 98.9062 91.2646 98.25 92.1084C103.125 90.7021 108.188 87.6084 109.781 81.0459C110.063 79.9209 110.25 78.8896 110.25 77.8584C110.25 72.2334 108 67.7334 103.5 65.1084Z"
        fill="#284049" />
    <path
        d="M29.625 25.8438C29.625 25.4591 29.2328 25.0745 28.6446 24.9784L26.7819 24.6899C26.2917 24.5938 25.7034 24.113 25.7034 23.6322L25.5074 21.8053C25.4093 21.3245 25.0172 20.8438 24.625 20.8438C24.2328 20.8438 23.8407 21.2284 23.7426 21.8053L23.5466 23.6322C23.4485 24.113 22.9583 24.6899 22.4681 24.6899L20.6054 24.9784C20.1152 25.0745 19.625 25.4591 19.625 25.8438C19.625 26.2284 20.0172 26.613 20.6054 26.7091L22.4681 26.9976C22.9583 27.0938 23.5466 27.5745 23.5466 28.0553L23.8407 29.8822C23.9387 30.363 24.3309 30.8438 24.723 30.8438C25.1152 30.8438 25.5074 30.4591 25.5074 29.8822L25.8015 27.863C25.8995 27.3822 26.3897 26.9014 26.8799 26.8053L28.6446 26.7091C29.2328 26.5168 29.625 26.1322 29.625 25.8438Z"
        fill="white" />
    <path
        d="M101.625 50.8438C101.625 50.4591 101.233 50.0745 100.645 49.9784L98.7819 49.6899C98.2917 49.5938 97.7034 49.113 97.7034 48.6322L97.5074 46.8053C97.4093 46.3245 97.0172 45.8438 96.625 45.8438C96.2328 45.8438 95.8407 46.2284 95.7426 46.8053L95.5466 48.6322C95.4485 49.113 94.9583 49.6899 94.4681 49.6899L92.6054 49.9784C92.1152 50.0745 91.625 50.4591 91.625 50.8438C91.625 51.2284 92.0172 51.613 92.6054 51.7091L94.4681 51.9976C94.9583 52.0938 95.5466 52.5745 95.5466 53.0553L95.8407 54.8822C95.9387 55.363 96.3309 55.8438 96.723 55.8438C97.1152 55.8438 97.5074 55.4591 97.5074 54.8822L97.8015 52.863C97.8995 52.3822 98.3897 51.9014 98.8799 51.8053L100.645 51.7091C101.233 51.5168 101.625 51.1322 101.625 50.8438Z"
        fill="white" />
    <path
        d="M52.625 81.8438C52.625 81.4591 52.2328 81.0745 51.6446 80.9784L49.7819 80.6899C49.2917 80.5938 48.7034 80.113 48.7034 79.6322L48.5074 77.8053C48.4093 77.3245 48.0172 76.8438 47.625 76.8438C47.2328 76.8438 46.8407 77.2284 46.7426 77.8053L46.5466 79.6322C46.4485 80.113 45.9583 80.6899 45.4681 80.6899L43.6054 80.9784C43.1152 81.0745 42.625 81.4591 42.625 81.8438C42.625 82.2284 43.0172 82.613 43.6054 82.7091L45.4681 82.9976C45.9583 83.0938 46.5466 83.5745 46.5466 84.0553L46.8407 85.8822C46.9387 86.363 47.3309 86.8438 47.723 86.8438C48.1152 86.8438 48.5074 86.4591 48.5074 85.8822L48.8015 83.863C48.8995 83.3822 49.3897 82.9014 49.8799 82.8053L51.6446 82.7091C52.2328 82.5168 52.625 82.1322 52.625 81.8438Z"
        fill="white" />
    <path
        d="M84.1875 92C81.9875 92 80.1875 90.2 80.1875 88C80.1875 85.8 81.9875 84 84.1875 84C86.3875 84 88.1875 85.8 88.1875 88C88.1875 90.2 86.3875 92 84.1875 92ZM84.1875 85.9C82.9875 85.9 82.0875 86.9 82.0875 88C82.0875 89.2 83.0875 90.1 84.1875 90.1C85.3875 90.1 86.2875 89.1 86.2875 88C86.2875 86.8 85.3875 85.9 84.1875 85.9Z"
        fill="white" />
    <path
        d="M13.1875 57C10.9875 57 9.1875 55.2 9.1875 53C9.1875 50.8 10.9875 49 13.1875 49C15.3875 49 17.1875 50.8 17.1875 53C17.1875 55.2 15.3875 57 13.1875 57ZM13.1875 50.9C11.9875 50.9 11.0875 51.9 11.0875 53C11.0875 54.2 12.0875 55.1 13.1875 55.1C14.3875 55.1 15.2875 54.1 15.2875 53C15.2875 51.8 14.3875 50.9 13.1875 50.9Z"
        fill="white" />
    <path
        d="M77 15.052C77 14.6358 76.5862 14.2197 75.9655 14.1156L71 13.2832C70.4828 13.1792 69.8621 12.659 69.7586 12.0347L68.931 7.04046C68.8276 6.52023 68.4138 6 68 6C67.5862 6 67.1724 6.41618 67.069 7.04046L66.2414 12.0347C66.1379 12.5549 65.6207 13.1792 65 13.2832L60.0345 14.1156C59.5172 14.2197 59 14.6358 59 15.052C59 15.4682 59.4138 15.8844 60.0345 15.9884L64.8965 16.6127C65.4138 16.7168 66.0345 17.237 66.1379 17.7572L67.069 22.9595C67.1724 23.4798 67.5862 24 68 24C68.4138 24 68.8276 23.5838 68.931 22.9595L69.8621 17.6532C69.9655 17.1329 70.4828 16.6127 71.1034 16.5087L75.9655 15.8844C76.5862 15.9884 77 15.4682 77 15.052Z"
        fill="white" />
</svg>
