<svg width="120" height="120" viewBox="0 0 120 120" fill="none" xmlns="http://www.w3.org/2000/svg">
    <path
        d="M116 29.052C116 28.6358 115.586 28.2197 114.966 28.1156L110 27.2832C109.483 27.1792 108.862 26.659 108.759 26.0347L107.931 21.0405C107.828 20.5202 107.414 20 107 20C106.586 20 106.172 20.4162 106.069 21.0405L105.241 26.0347C105.138 26.5549 104.621 27.1792 104 27.2832L99.0345 28.1156C98.5172 28.2197 98 28.6358 98 29.052C98 29.4682 98.4138 29.8844 99.0345 29.9884L103.897 30.6127C104.414 30.7168 105.034 31.237 105.138 31.7572L106.069 36.9595C106.172 37.4798 106.586 38 107 38C107.414 38 107.828 37.5838 107.931 36.9595L108.862 31.6532C108.966 31.1329 109.483 30.6127 110.103 30.5087L114.966 29.8844C115.586 29.9884 116 29.4682 116 29.052Z"
        fill="white" />
</svg>
