<svg width="46" height="46" viewBox="0 0 46 46" fill="none" xmlns="http://www.w3.org/2000/svg">
    <path
        d="M23.4072 38.1535C31.7939 38.1535 38.5926 31.2323 38.5926 22.6945C38.5926 14.1567 31.7939 7.23547 23.4072 7.23547C15.0206 7.23547 8.22192 14.1567 8.22192 22.6945C8.22192 31.2323 15.0206 38.1535 23.4072 38.1535Z"
        fill="#FBD000" />
    <path
        d="M22.888 15.2371C23.2584 14.483 23.851 14.483 24.2214 15.2371L25.5547 18.0273C25.9251 18.7813 26.8881 19.46 27.7029 19.6109L30.6659 20.0633C31.4807 20.2141 31.6288 20.742 31.0362 21.3453L28.8881 23.4568C28.2955 24.06 27.9251 25.1912 28.0733 26.0207L28.5918 29.0371C28.7399 29.8666 28.2214 30.2436 27.5547 29.7912L24.888 28.3584C24.1473 27.9813 22.9621 27.9813 22.2954 28.3584L19.6287 29.7912C18.888 30.1682 18.4435 29.7912 18.5917 29.0371L19.1102 26.0207C19.2584 25.1912 18.888 24.06 18.2954 23.4568L16.1472 21.3453C15.5546 20.742 15.7768 20.2141 16.5176 20.0633L19.4806 19.6109C20.2954 19.46 21.2584 18.7813 21.6288 18.0273L22.888 15.2371Z"
        fill="#FBD000" />
    <path
        d="M22.9634 45.2464C35.2365 45.2464 45.1858 35.2866 45.1858 23.0005C45.1858 10.7145 35.2365 0.754639 22.9634 0.754639C10.6903 0.754639 0.740967 10.7145 0.740967 23.0005C0.740967 35.2866 10.6903 45.2464 22.9634 45.2464Z"
        fill="#FBD000" />
    <path
        d="M23.4072 9.79941C31.4073 9.79941 37.9259 16.0584 38.5185 23.9765C38.5185 23.524 38.5926 23.1469 38.5926 22.6945C38.5926 14.1732 31.7777 7.23547 23.4072 7.23547C15.0368 7.23547 8.22192 14.1732 8.22192 22.6945C8.22192 23.1469 8.22193 23.524 8.296 23.9765C8.8886 16.0584 15.4072 9.79941 23.4072 9.79941Z"
        fill="#F4B10B" />
    <path
        d="M23.4071 42.2291C11.4811 42.2291 1.7773 32.8783 0.888407 20.9635C0.814333 21.5668 0.814331 22.0946 0.814331 22.6979C0.814331 35.3668 10.9626 45.6979 23.4071 45.6979C35.8517 45.6979 45.9999 35.3668 45.9999 22.6979C45.9999 22.0946 45.9999 21.4914 45.9258 20.9635C45.0369 32.8783 35.2591 42.2291 23.4071 42.2291Z"
        fill="#F4B10B" />
    <path
        d="M23.037 46C10.148 46 -0.000244141 35.9705 -0.000244141 23.0754C-0.000244141 10.3311 10.2961 0 23.037 0C35.8519 0 45.9261 10.1803 45.9261 23.0754C45.9261 35.9705 35.8519 46 23.037 46ZM23.037 1.5082C11.111 1.5082 1.48125 11.1607 1.48125 23.0754C1.48125 35.0656 10.9628 44.4918 23.037 44.4918C35.0371 44.4918 44.4446 35.141 44.4446 23.0754C44.4446 11.0098 35.0371 1.5082 23.037 1.5082Z"
        fill="#663210" />
    <path
        d="M23.4075 38.4584C14.5926 38.4584 7.40735 31.219 7.40735 22.3961C7.40735 13.7994 14.5926 6.78625 23.4075 6.78625C32.2965 6.78625 39.2595 13.6485 39.2595 22.3961C39.2595 31.219 32.1483 38.4584 23.4075 38.4584ZM23.4075 8.29445C15.2593 8.29445 8.88884 14.4781 8.88884 22.3961C8.88884 30.3141 15.5556 37.0256 23.4075 37.0256C31.3335 36.9502 37.778 30.3895 37.778 22.3961C37.778 14.4781 31.4816 8.29445 23.4075 8.29445Z"
        fill="#663210" />
    <path
        d="M22.8063 16.1759C23.051 15.6865 23.4425 15.6865 23.6871 16.1759L25.4 19.6993C25.6446 20.1887 26.2808 20.6291 26.8191 20.727L30.6852 21.3143C31.2235 21.4121 31.3214 21.7547 30.9299 22.1462L28.1404 24.8867C27.749 25.2782 27.5043 26.0122 27.6021 26.5505L28.2873 30.4166C28.3851 30.9549 28.0426 31.1996 27.6021 30.906L24.1276 28.9974C23.6382 28.7527 22.8552 28.7527 22.4148 28.9974L18.9402 30.8081C18.4508 31.0528 18.1572 30.8081 18.2551 30.3187L18.9402 26.4527C19.0381 25.9144 18.7934 25.1803 18.4019 24.7888L15.6125 22.0483C15.221 21.6568 15.3678 21.3143 15.8572 21.2164L19.7232 20.6291C20.2615 20.5313 20.8977 20.0908 21.1424 19.6015L22.8063 16.1759Z"
        fill="#F4B10B" />
    <path
        d="M27.9449 29.7749C27.7492 29.7749 27.5534 29.7259 27.3577 29.6281L23.8831 27.8174C23.5895 27.6706 22.9044 27.6706 22.6107 27.8174L19.1362 29.6281C18.6468 29.8727 18.2064 29.8238 17.9127 29.4812C17.7659 29.3344 17.6681 29.0408 17.717 28.6004L18.4021 24.7343C18.4511 24.3428 18.2553 23.8045 18.0106 23.5109L15.2212 20.7704C14.8786 20.4768 14.7807 20.0853 14.8786 19.7428C14.9765 19.4002 15.3191 19.1555 15.7595 19.1066L19.6256 18.5193C20.0171 18.4704 20.5064 18.1278 20.6532 17.7853L22.3661 14.2618C22.5618 13.8703 22.9044 13.6256 23.2469 13.6256C23.5895 13.6256 23.932 13.8703 24.1278 14.2618L25.8406 17.7853C25.9874 18.1278 26.4768 18.4704 26.8683 18.5193L30.7344 19.1066C31.1748 19.1555 31.5174 19.4002 31.6152 19.7428C31.7131 20.0853 31.6152 20.4768 31.2727 20.7704L28.4832 23.5109C28.1896 23.7556 28.0428 24.3428 28.0917 24.7343L28.7769 28.6004C28.8747 29.0408 28.7279 29.3344 28.5811 29.4812C28.4343 29.677 28.1896 29.7749 27.9449 29.7749Z"
        fill="#FFBB80" />
    <path
        d="M18.6952 23.705L18.842 22.7263C18.9399 22.188 18.6952 21.4539 18.3037 21.0624L16.6398 19.4475L15.7589 19.5943C15.2206 19.6922 15.1228 20.0348 15.5143 20.4263L18.3037 23.1667C18.4994 23.3135 18.6462 23.5093 18.6952 23.705Z"
        fill="#ED9E5A" />
    <path
        d="M30.6861 19.5943L29.8052 19.4475L28.1413 21.0624C27.7498 21.4539 27.5051 22.188 27.603 22.7263L27.7498 23.705C27.8477 23.5093 27.9456 23.3135 28.0924 23.1667L30.8818 20.4263C31.3712 20.0348 31.2244 19.6922 30.6861 19.5943Z"
        fill="#ED9E5A" />
    <path
        d="M28.0431 27.1818C27.9452 27.2307 27.7494 27.1818 27.6026 27.0839L24.1281 25.2732C23.6387 25.0286 22.8557 25.0286 22.4153 25.2732L18.9407 27.0839C18.745 27.1818 18.5981 27.1818 18.5003 27.1818L18.2556 28.6499C18.1577 29.1882 18.5003 29.4329 18.9407 29.1393L22.4153 27.3286C22.9046 27.0839 23.6876 27.0839 24.1281 27.3286L27.6026 29.1393C28.092 29.384 28.3856 29.1393 28.2878 28.6499L28.0431 27.1818Z"
        fill="#ED9E5A" />
    <path
        d="M27.9449 29.7749C27.7492 29.7749 27.5534 29.7259 27.3577 29.6281L23.8831 27.8174C23.5895 27.6706 22.9044 27.6706 22.6107 27.8174L19.1362 29.6281C18.6468 29.8727 18.2064 29.8238 17.9127 29.4812C17.7659 29.3344 17.6681 29.0408 17.717 28.6004L18.4021 24.7343C18.4511 24.3428 18.2553 23.8045 18.0106 23.5109L15.2212 20.7704C14.8786 20.4768 14.7807 20.0853 14.8786 19.7428C14.9765 19.4002 15.3191 19.1555 15.7595 19.1066L19.6256 18.5193C20.0171 18.4704 20.5064 18.1278 20.6532 17.7853L22.3661 14.2618C22.5618 13.8703 22.9044 13.6256 23.2469 13.6256C23.5895 13.6256 23.932 13.8703 24.1278 14.2618L25.8406 17.7853C25.9874 18.1278 26.4768 18.4704 26.8683 18.5193L30.7344 19.1066C31.1748 19.1555 31.5174 19.4002 31.6152 19.7428C31.7131 20.0853 31.6152 20.4768 31.2727 20.7704L28.4832 23.5109C28.1896 23.7556 28.0428 24.3428 28.0917 24.7343L28.7769 28.6004C28.8747 29.0408 28.7279 29.3344 28.5811 29.4812C28.4343 29.677 28.1896 29.7749 27.9449 29.7749ZM23.2469 26.6429C23.6384 26.6429 24.0299 26.7408 24.3236 26.8876L27.7981 28.6983L27.1619 24.8322C27.064 24.1471 27.3577 23.2662 27.847 22.7279L30.6365 19.9874L26.7704 19.4491C26.0853 19.3513 25.3023 18.813 25.0087 18.1768L23.2959 14.7022L21.5341 18.2257C21.2405 18.8619 20.4575 19.4002 19.7724 19.4981L15.9063 20.0364L18.6957 22.7769C19.1851 23.2662 19.4787 24.1471 19.3809 24.8812L18.6957 28.7472L22.1703 26.9365C22.4639 26.7408 22.8554 26.6429 23.2469 26.6429Z"
        fill="#663210" />
</svg>
