<svg width="120" height="120" viewBox="0 0 120 120" fill="none" xmlns="http://www.w3.org/2000/svg">
    <path
        d="M62 19.052C62 18.6358 61.5862 18.2197 60.9655 18.1156L56 17.2832C55.4828 17.1792 54.8621 16.659 54.7586 16.0347L53.931 11.0405C53.8276 10.5202 53.4138 10 53 10C52.5862 10 52.1724 10.4162 52.069 11.0405L51.2414 16.0347C51.1379 16.5549 50.6207 17.1792 50 17.2832L45.0345 18.1156C44.5172 18.2197 44 18.6358 44 19.052C44 19.4682 44.4138 19.8844 45.0345 19.9884L49.8965 20.6127C50.4138 20.7168 51.0345 21.237 51.1379 21.7572L52.069 26.9595C52.1724 27.4798 52.5862 28 53 28C53.4138 28 53.8276 27.5838 53.931 26.9595L54.8621 21.6532C54.9655 21.1329 55.4828 20.6127 56.1034 20.5087L60.9655 19.8844C61.5862 19.9884 62 19.4682 62 19.052Z"
        fill="white" />
</svg>
