<svg width="24" height="24" viewBox="0 0 24 24" fill="none" xmlns="http://www.w3.org/2000/svg">
    <rect x="0.5" y="0.5" width="23" height="23" rx="11.5" fill="#461616" fill-opacity="0.1" />
    <rect x="0.5" y="0.5" width="23" height="23" rx="11.5" stroke="#CD3333" />
    <g clip-path="url(#clip0_1_10666)">
        <path
            d="M17.7814 15.6807L14.1031 12.0004L17.7829 8.32007C18.0743 8.03011 18.0743 7.55874 17.7829 7.26877L16.7303 6.21747C16.4403 5.92751 15.969 5.92751 15.6791 6.21747L12.0007 9.89777L8.3209 6.21747C8.03098 5.92751 7.55966 5.92751 7.26973 6.21747L6.21856 7.27026C5.92715 7.56022 5.92715 8.0316 6.21856 8.32156L9.8984 12.0019L6.21856 15.6807C5.92715 15.9706 5.92715 16.442 6.21856 16.732L7.26973 17.7833C7.55966 18.0732 8.03098 18.0732 8.3209 17.7833L12.0007 14.103L15.6791 17.7833C15.969 18.0732 16.4403 18.0732 16.7303 17.7833L17.7814 16.732C18.0743 16.4405 18.0743 15.9706 17.7814 15.6807Z"
            fill="#FEFEFE" />
    </g>
    <defs>
        <clipPath id="clip0_1_10666">
            <rect width="12" height="12" fill="white" transform="translate(6 6)" />
        </clipPath>
    </defs>
</svg>
